<svg width="125" height="168" viewBox="0 0 125 168" fill="none" xmlns="http://www.w3.org/2000/svg">
<path d="M117.162 134.761C117.1 130.146 114.479 124.487 109.339 121.796C106.786 120.504 103.946 119.674 100.998 119.358C99.9839 117.058 99.2421 115.746 99.2421 115.746H73.2408C73.2408 115.746 72.5165 117.058 71.4849 119.358C68.5364 119.673 65.6967 120.504 63.1441 121.796C58.0036 124.487 55.3828 130.146 55.317 134.761C58.8313 134.896 62.1964 136.006 64.8957 137.922C65.598 135.794 66.2653 132.979 67.714 129.889C65.339 138.429 63.7631 149.777 67.1213 160.885H80.4139V148.897H92.0427V160.885H105.331C108.672 149.777 107.113 138.429 104.738 129.889C106.191 132.979 106.854 135.794 107.561 137.922C110.266 136.002 113.639 134.891 117.162 134.761V134.761Z" fill="#154579"/>
<path d="M105.976 162H90.7345V150.011H81.3006V162H66.059L65.8483 161.299C63.5436 153.631 63.5743 145.862 64.4918 139.19L63.9738 138.817C61.4683 137.054 58.3602 136.024 55.1106 135.879H54V134.936C54.0658 130.235 56.6734 124.159 62.3408 121.192C64.8257 119.923 67.5784 119.079 70.4445 118.705C71.3444 116.715 71.9634 115.585 71.9941 115.533L72.2882 115H99.7118L100.006 115.533C100.032 115.585 100.656 116.715 101.551 118.705C104.419 119.079 107.173 119.923 109.659 121.192C115.335 124.174 117.939 130.235 118 134.936V135.883H116.92C113.672 136.028 110.566 137.058 108.061 138.821L107.543 139.193C108.461 145.866 108.492 153.635 106.187 161.303L105.976 162ZM92.9294 160.136H104.264C107.372 149.079 105.559 137.836 103.461 130.288L105.55 129.729C106.485 131.804 107.256 133.93 107.859 136.092C107.903 136.237 107.947 136.379 107.987 136.517C110.318 135.186 112.992 134.35 115.783 134.079C115.436 130.135 113.114 125.177 108.527 122.772C106.108 121.549 103.418 120.762 100.625 120.461L99.9796 120.383L99.7513 119.865C99.1367 118.471 98.6231 117.438 98.329 116.86H73.7237C73.4252 117.438 72.916 118.471 72.3014 119.865L72.0731 120.383L71.4278 120.461C68.6348 120.762 65.9449 121.549 63.526 122.772C58.9167 125.181 56.6032 130.135 56.252 134.079C59.0487 134.349 61.7283 135.185 64.066 136.517C64.1055 136.379 64.1494 136.237 64.1933 136.092C64.7946 133.929 65.566 131.803 66.5024 129.729L68.5919 130.288C66.4892 137.836 64.6762 149.079 67.7886 160.136H79.1233V148.148H92.947L92.9294 160.136Z" fill="#231F20"/>
<line x1="8" y1="168" x2="8" y2="1" stroke="black" stroke-width="10"/>
<line y1="8" x2="91" y2="8" stroke="black" stroke-width="10"/>
<line x1="86.5" x2="86.5" y2="51" stroke="black"/>
<path d="M109.638 60.8584H62.3622C54.4927 60.8584 48.1132 66.7556 48.1132 74.0303V104.799C48.1132 112.074 54.4927 117.971 62.3622 117.971H109.638C117.507 117.971 123.887 112.074 123.887 104.799V74.0303C123.887 66.7556 117.507 60.8584 109.638 60.8584Z" fill="#EBB787"/>
<path d="M109.638 119H62.3622C58.2894 118.996 54.3847 117.498 51.5047 114.836C48.6247 112.174 47.0047 108.564 47 104.799V74.0303C47.0047 70.2653 48.6247 66.6557 51.5047 63.9935C54.3847 61.3312 58.2894 59.8337 62.3622 59.8293H109.638C113.711 59.8337 117.615 61.3312 120.495 63.9935C123.375 66.6557 124.995 70.2653 125 74.0303V104.799C124.995 108.564 123.375 112.174 120.495 114.836C117.615 117.498 113.711 118.996 109.638 119V119ZM62.3622 61.8874C58.8798 61.8918 55.5414 63.1725 53.079 65.4488C50.6166 67.7251 49.2311 70.8111 49.2264 74.0303V104.799C49.2299 108.019 50.615 111.105 53.0777 113.382C55.5404 115.658 58.8795 116.939 62.3622 116.942H109.638C113.121 116.939 116.46 115.658 118.922 113.382C121.385 111.105 122.77 108.019 122.774 104.799V74.0303C122.769 70.8111 121.383 67.7251 118.921 65.4488C116.459 63.1725 113.12 61.8918 109.638 61.8874H62.3622Z" fill="#231F20"/>
<path d="M69.2997 96.3278C72.3738 96.3278 74.8657 94.0242 74.8657 91.1826C74.8657 88.3409 72.3738 86.0373 69.2997 86.0373C66.2257 86.0373 63.7337 88.3409 63.7337 91.1826C63.7337 94.0242 66.2257 96.3278 69.2997 96.3278Z" fill="#231F20"/>
<path d="M102.696 96.3278C105.77 96.3278 108.262 94.0242 108.262 91.1826C108.262 88.3409 105.77 86.0373 102.696 86.0373C99.6218 86.0373 97.1298 88.3409 97.1298 91.1826C97.1298 94.0242 99.6218 96.3278 102.696 96.3278Z" fill="#231F20"/>
<path d="M69.2997 89.6225C69.3006 89.898 69.213 90.1676 69.0479 90.397C68.8829 90.6264 68.6479 90.8054 68.3727 90.9112C68.0975 91.017 67.7945 91.0449 67.5021 90.9914C67.2098 90.9378 66.9412 90.8052 66.7304 90.6104C66.5197 90.4156 66.3762 90.1673 66.3183 89.897C66.2604 89.6268 66.2906 89.3467 66.405 89.0923C66.5195 88.8379 66.7131 88.6207 66.9613 88.4681C67.2095 88.3155 67.5011 88.2345 67.7991 88.2353C68.1971 88.2353 68.5788 88.3815 68.8602 88.6416C69.1416 88.9018 69.2997 89.2546 69.2997 89.6225V89.6225Z" fill="white"/>
<path d="M102.941 89.6225C102.942 89.8978 102.854 90.1672 102.689 90.3966C102.524 90.6259 102.29 90.8049 102.015 90.9108C101.74 91.0168 101.437 91.0449 101.145 90.9917C100.853 90.9384 100.584 90.8063 100.373 90.6119C100.162 90.4175 100.018 90.1696 99.9599 89.8996C99.9015 89.6296 99.931 89.3496 100.045 89.0952C100.159 88.8407 100.351 88.6232 100.599 88.4701C100.847 88.317 101.138 88.2353 101.436 88.2353C101.834 88.2353 102.216 88.3814 102.498 88.6414C102.78 88.9014 102.94 89.2542 102.941 89.6225Z" fill="white"/>
<path d="M109.638 61.8874H62.3622C58.8798 61.8918 55.5414 63.1725 53.079 65.4488C50.6166 67.7251 49.2311 70.8111 49.2264 74.0303V97.0811L51.6977 94.5661L51.7423 94.2533C51.7779 94.031 55.4025 71.7746 74.6253 71.7746C78.3877 71.8469 82.1079 72.5238 85.6193 73.7751V73.7751C84.0794 75.5597 83.2732 77.791 83.3439 80.0729C83.3439 85.5598 92.8462 85.284 92.6948 80.0729C92.6948 80.0729 86.9062 84.8724 87.2045 79.7971C87.396 76.5412 91.8399 74.7959 94.8678 73.2111C96.0968 72.7789 98.154 71.8898 101.351 72.1121C107.474 73.1741 112.39 76.7758 115.996 82.8637C118.056 86.4248 119.487 90.2669 120.235 94.245L120.284 94.5579L122.756 97.0729V74.022C122.749 70.8072 121.365 67.7257 118.906 65.4517C116.448 63.1776 113.116 61.8961 109.638 61.8874Z" fill="#D69576"/>
<path d="M98.2965 51.5639C94.4759 51.3005 91.3011 51.1523 88.3043 51.0617C86.8215 51.0206 85.3699 51 83.994 51C74.278 51 66.5212 52.0002 60.2783 54.0625C51.818 56.8533 47 62.4061 47 69.2925V96.2414L51.7111 91.4666L51.7556 91.1537C51.7912 90.9315 55.4158 68.6751 74.6386 68.6751C78.4011 68.7473 82.1212 69.4243 85.6326 70.6755V70.6755C84.0927 72.4602 83.2866 74.6915 83.3573 76.9734C83.3573 82.4603 92.8596 82.1845 92.7082 76.9734C92.7082 76.9734 86.9195 81.7729 87.2179 76.6976C87.4093 73.4416 91.8532 71.6964 94.8812 70.1116C96.1101 69.6794 98.1673 68.7903 101.364 69.0126C107.487 70.0746 112.403 73.6763 116.01 79.7642C118.069 83.3253 119.5 87.1674 120.249 91.1455L120.298 91.4584L124.996 96.2373V69.2966C125 58.9031 115.765 52.7741 98.2965 51.5639Z" fill="#231F20"/>
<path d="M77.7244 111.204C78.3511 110.435 79.0548 109.723 79.8261 109.076C80.6027 108.401 81.4333 107.782 82.3108 107.223C82.5513 107.067 82.8051 106.915 83.0722 106.767C83.3405 106.616 83.6169 106.479 83.9005 106.355C84.0385 106.285 84.1899 106.219 84.3458 106.153C84.5016 106.087 84.6485 106.026 84.8267 105.972L85.3744 105.816C85.4768 105.795 85.6015 105.783 85.7172 105.766L85.8953 105.746H85.9844H86.0779C86.1358 105.746 85.9621 105.746 86.2115 105.746C86.3673 105.746 86.5009 105.779 86.6568 105.808C86.8126 105.836 87.1021 105.91 87.3024 105.976C87.5028 106.042 87.6319 106.096 87.8011 106.161C87.9537 106.221 88.1024 106.288 88.2464 106.363C88.5303 106.486 88.8068 106.624 89.0746 106.775C89.3418 106.919 89.5956 107.071 89.8361 107.228C90.7127 107.787 91.5433 108.406 92.3208 109.08C93.0896 109.729 93.7917 110.443 94.418 111.212C94.418 111.212 94.1197 111.113 93.621 110.916C93.1223 110.718 92.4098 110.43 91.5905 110.064L88.8342 108.804C88.3399 108.578 87.8279 108.351 87.3291 108.154C87.2073 108.101 87.0825 108.054 86.9551 108.014C86.8438 107.981 86.6968 107.919 86.6078 107.894C86.5317 107.877 86.4572 107.853 86.3851 107.824C86.2605 107.804 86.0913 107.792 85.9399 107.775H85.9666C85.931 107.775 85.9042 107.775 85.8597 107.775L85.5347 107.861C85.2987 107.948 85.0538 108.01 84.7999 108.121C84.3012 108.318 83.7892 108.532 83.2949 108.771L80.5386 110.031C79.7193 110.401 79.0113 110.689 78.5081 110.887C78.0049 111.085 77.7244 111.204 77.7244 111.204Z" fill="#231F20"/>
<path d="M77.7244 111.204C78.3511 110.435 79.0548 109.723 79.8262 109.076C80.6028 108.401 81.4333 107.782 82.3109 107.223C82.5513 107.067 82.8051 106.915 83.0723 106.767C83.3405 106.616 83.617 106.479 83.9005 106.355C84.0385 106.285 84.1899 106.219 84.3458 106.153C84.5016 106.087 84.6486 106.026 84.8267 105.972L85.3744 105.816C85.4768 105.795 85.6015 105.783 85.7173 105.766L85.8954 105.746H85.9844H86.0779C86.1358 105.746 85.9622 105.746 86.2115 105.746C86.3674 105.746 86.501 105.779 86.6568 105.808C86.8126 105.836 87.1021 105.91 87.3025 105.976C87.5028 106.042 87.632 106.096 87.8012 106.161C87.9538 106.221 88.1024 106.288 88.2465 106.363C88.5304 106.486 88.8069 106.624 89.0747 106.775C89.3418 106.919 89.5957 107.071 89.8361 107.228C90.7128 107.787 91.5433 108.406 92.3208 109.08C93.0897 109.729 93.7918 110.443 94.4181 111.212C94.4181 111.212 94.1197 111.113 93.621 110.916C93.1223 110.718 92.4098 110.43 91.5905 110.064L88.8342 108.804C88.34 108.578 87.8279 108.351 87.3292 108.154C87.2074 108.101 87.0825 108.054 86.9551 108.014C86.8438 107.981 86.6969 107.919 86.6078 107.894C86.5317 107.877 86.4572 107.853 86.3852 107.824C86.2605 107.804 86.0913 107.792 85.9399 107.775H85.9666C85.931 107.775 85.9043 107.775 85.8597 107.775L85.5347 107.861C85.2987 107.948 85.0538 108.01 84.8 108.121C84.3013 108.318 83.7892 108.532 83.2949 108.771L80.5386 110.031C79.7193 110.401 79.0113 110.689 78.5081 110.887C78.005 111.085 77.7244 111.204 77.7244 111.204Z" fill="#231F20"/>
</svg>
