<svg width="50" height="50" viewBox="0 0 50 50" fill="none" xmlns="http://www.w3.org/2000/svg">
<path fill-rule="evenodd" clip-rule="evenodd" d="M49.4 27.8375L44.8059 22.5312C44.5016 22.2129 44.0917 22.0345 43.6647 22.0345C43.2377 22.0345 42.8278 22.2129 42.5235 22.5312L37.9235 27.8375C37.7734 27.9953 37.6542 28.1832 37.5729 28.3902C37.4916 28.5973 37.4497 28.8194 37.4497 29.0437C37.4497 29.2681 37.4916 29.4902 37.5729 29.6973C37.6542 29.9043 37.7734 30.0922 37.9235 30.25H41.7294C41.0175 33.0917 39.6121 35.6834 37.6553 37.7631C35.6985 39.8427 33.2597 41.3366 30.5853 42.0937C27.4599 42.9624 24.1591 42.7935 21.1268 41.6097C18.0945 40.4259 15.476 38.2839 13.6235 35.4719L10.4147 37.8187C12.7262 41.3275 15.9936 44 19.7774 45.4766C23.5612 46.9532 27.6799 47.1631 31.5794 46.0781C35.0864 45.0902 38.2666 43.0874 40.7659 40.2929C43.2652 37.4984 44.9855 34.0218 45.7353 30.25H49.397C49.547 30.0922 49.6661 29.9044 49.7474 29.6975C49.8288 29.4906 49.8708 29.2686 49.8711 29.0444C49.8713 28.8202 49.8299 28.5981 49.749 28.3909C49.6682 28.1838 49.5495 27.9957 49.4 27.8375Z" fill="#FAAA33"/>
<path fill-rule="evenodd" clip-rule="evenodd" d="M16.1029 25.0656C16.253 24.9078 16.3722 24.72 16.4535 24.5129C16.5348 24.3059 16.5767 24.0837 16.5767 23.8594C16.5767 23.635 16.5348 23.4129 16.4535 23.2058C16.3722 22.9988 16.253 22.8109 16.1029 22.6531H11.8176C12.5467 19.8473 13.9539 17.2929 15.8996 15.2437C17.8453 13.1945 20.2617 11.7218 22.9088 10.9719C26.0343 10.1022 29.3355 10.2714 32.3678 11.4565C35.4 12.6416 38.0175 14.7857 39.8676 17.6L43.0794 15.25C40.7672 11.7393 37.4986 9.06524 33.7132 7.58751C29.9278 6.10978 25.8072 5.8993 21.9059 6.98438C18.4259 7.96785 15.2678 9.95006 12.7776 12.7138C10.2874 15.4776 8.56126 18.9163 7.78821 22.6531H3.51763C3.36752 22.8109 3.24835 22.9988 3.16703 23.2058C3.0857 23.4129 3.04382 23.635 3.04382 23.8594C3.04382 24.0837 3.0857 24.3059 3.16703 24.5129C3.24835 24.72 3.36752 24.9078 3.51763 25.0656L8.33527 30.1813C8.63954 30.4996 9.04943 30.678 9.47645 30.678C9.90347 30.678 10.3134 30.4996 10.6176 30.1813L16.1029 25.0656Z" fill="#6A8BFF"/>
</svg>
