<svg width="2500" height="408" viewBox="0 0 2500 408" fill="none" xmlns="http://www.w3.org/2000/svg">
<line x1="37.5923" y1="407.788" x2="37.5923" y2="7.77521" stroke="black" stroke-width="10"/>
<line y1="31.5186" x2="298.146" y2="31.5186" stroke="black" stroke-width="10"/>
<line x1="282.265" y1="5.37988" x2="282.265" y2="127.54" stroke="black"/>
<line x1="340.558" y1="403.484" x2="340.558" y2="3.47122" stroke="black" stroke-width="10"/>
<line x1="314.55" y1="27.2146" x2="531.601" y2="27.2146" stroke="black" stroke-width="10"/>
<line x1="520.175" y1="1.07593" x2="520.175" y2="123.236" stroke="black"/>
<path d="M576.055 146.849H463.295C444.525 146.849 429.309 160.975 429.309 178.4V252.1C429.309 269.525 444.525 283.65 463.295 283.65H576.055C594.825 283.65 610.042 269.525 610.042 252.1V178.4C610.042 160.975 594.825 146.849 576.055 146.849Z" fill="#EBB787"/>
<path d="M576.055 286.115H463.295C453.58 286.105 444.267 282.518 437.398 276.141C430.529 269.764 426.665 261.118 426.653 252.1V178.4C426.665 169.381 430.529 160.736 437.398 154.359C444.267 147.982 453.58 144.395 463.295 144.384H576.055C585.77 144.395 595.083 147.982 601.952 154.359C608.821 160.736 612.686 169.381 612.697 178.4V252.1C612.686 261.118 608.821 269.764 601.952 276.141C595.083 282.518 585.77 286.105 576.055 286.115V286.115ZM463.295 149.314C454.989 149.324 447.026 152.392 441.153 157.845C435.28 163.297 431.975 170.689 431.964 178.4V252.1C431.972 259.811 435.276 267.205 441.15 272.658C447.024 278.111 454.988 281.178 463.295 281.185H576.055C584.362 281.178 592.327 278.111 598.2 272.658C604.074 267.205 607.378 259.811 607.386 252.1V178.4C607.375 170.689 604.071 163.297 598.197 157.845C592.324 152.392 584.361 149.324 576.055 149.314H463.295Z" fill="#231F20"/>
<path d="M479.842 231.809C487.174 231.809 493.118 226.291 493.118 219.485C493.118 212.678 487.174 207.16 479.842 207.16C472.51 207.16 466.566 212.678 466.566 219.485C466.566 226.291 472.51 231.809 479.842 231.809Z" fill="#231F20"/>
<path d="M559.498 231.809C566.83 231.809 572.774 226.291 572.774 219.485C572.774 212.678 566.83 207.16 559.498 207.16C552.166 207.16 546.222 212.678 546.222 219.485C546.222 226.291 552.166 231.809 559.498 231.809Z" fill="#231F20"/>
<path d="M479.842 215.748C479.844 216.408 479.635 217.053 479.242 217.603C478.848 218.152 478.287 218.581 477.631 218.835C476.975 219.088 476.252 219.155 475.555 219.027C474.857 218.898 474.217 218.581 473.714 218.114C473.211 217.647 472.869 217.053 472.731 216.405C472.593 215.758 472.665 215.087 472.938 214.478C473.211 213.868 473.673 213.348 474.265 212.983C474.856 212.617 475.552 212.423 476.263 212.425C477.212 212.425 478.123 212.775 478.794 213.398C479.465 214.021 479.842 214.867 479.842 215.748V215.748Z" fill="white"/>
<path d="M560.082 215.748C560.084 216.407 559.875 217.053 559.482 217.602C559.089 218.151 558.529 218.58 557.873 218.834C557.217 219.087 556.495 219.155 555.798 219.027C555.101 218.9 554.46 218.583 553.957 218.118C553.454 217.652 553.111 217.058 552.972 216.411C552.832 215.765 552.903 215.094 553.174 214.485C553.446 213.875 553.906 213.354 554.496 212.987C555.087 212.621 555.781 212.425 556.492 212.425C557.442 212.425 558.354 212.775 559.027 213.398C559.699 214.02 560.079 214.866 560.082 215.748Z" fill="white"/>
<path d="M576.055 149.314H463.295C454.989 149.325 447.026 152.392 441.153 157.845C435.28 163.297 431.975 170.689 431.964 178.4V233.613L437.858 227.589L437.965 226.84C438.05 226.307 446.695 172.997 492.545 172.997C501.519 173.17 510.392 174.791 518.767 177.789V177.789C515.094 182.063 513.171 187.408 513.34 192.874C513.34 206.016 536.005 205.356 535.643 192.874C535.643 192.874 521.837 204.37 522.548 192.213C523.005 184.414 533.604 180.234 540.826 176.438C543.758 175.403 548.664 173.273 556.29 173.805C570.894 176.349 582.619 184.976 591.222 199.558C596.133 208.088 599.546 217.291 601.333 226.82L601.449 227.569L607.344 233.594V178.38C607.327 170.68 604.026 163.299 598.162 157.852C592.299 152.405 584.35 149.335 576.055 149.314Z" fill="#D69576"/>
<path d="M549.004 124.586C539.892 123.955 532.319 123.6 525.171 123.383C521.635 123.285 518.172 123.236 514.89 123.236C491.716 123.236 473.215 125.631 458.324 130.571C438.145 137.256 426.653 150.556 426.653 167.051V231.602L437.89 220.165L437.996 219.415C438.081 218.883 446.727 165.572 492.576 165.572C501.55 165.746 510.424 167.367 518.799 170.364V170.364C515.126 174.639 513.203 179.983 513.372 185.449C513.372 198.592 536.036 197.932 535.675 185.449C535.675 185.449 521.868 196.946 522.58 184.789C523.037 176.99 533.636 172.809 540.858 169.013C543.79 167.978 548.696 165.849 556.322 166.381C570.925 168.925 582.651 177.552 591.254 192.134C596.165 200.664 599.578 209.867 601.364 219.396L601.481 220.145L612.686 231.592V167.061C612.697 142.166 590.669 127.485 549.004 124.586Z" fill="#231F20"/>
<path d="M499.936 267.441C501.431 265.6 503.11 263.893 504.949 262.344C506.802 260.728 508.783 259.245 510.876 257.907C511.449 257.532 512.055 257.168 512.692 256.813C513.332 256.453 513.991 256.124 514.667 255.827C514.997 255.659 515.358 255.501 515.729 255.344C516.101 255.186 516.452 255.038 516.877 254.91L518.183 254.535C518.427 254.486 518.725 254.456 519.001 254.417L519.425 254.367H519.638H519.861C519.999 254.367 519.585 254.367 520.18 254.367C520.551 254.367 520.87 254.446 521.242 254.515C521.613 254.584 522.304 254.762 522.782 254.92C523.26 255.077 523.568 255.206 523.971 255.363C524.335 255.505 524.69 255.666 525.033 255.846C525.71 256.142 526.37 256.471 527.009 256.832C527.646 257.177 528.251 257.542 528.825 257.917C530.916 259.258 532.897 260.741 534.751 262.354C536.585 263.909 538.26 265.619 539.754 267.461C539.754 267.461 539.042 267.224 537.852 266.751C536.663 266.278 534.964 265.588 533.009 264.71L526.435 261.693C525.256 261.151 524.035 260.609 522.845 260.135C522.555 260.008 522.257 259.897 521.953 259.8C521.688 259.721 521.337 259.573 521.125 259.514C520.943 259.472 520.766 259.416 520.594 259.347C520.296 259.297 519.893 259.268 519.532 259.228H519.595C519.51 259.228 519.447 259.228 519.341 259.228L518.565 259.435C518.002 259.642 517.418 259.79 516.813 260.056C515.623 260.53 514.402 261.042 513.223 261.614L506.649 264.631C504.695 265.519 503.006 266.209 501.806 266.682C500.606 267.155 499.936 267.441 499.936 267.441Z" fill="#231F20"/>
<path d="M908.552 323.868C908.405 312.813 902.154 299.259 889.893 292.812C883.804 289.718 877.031 287.73 869.999 286.972C867.58 281.463 865.811 278.32 865.811 278.32H803.793C803.793 278.32 802.065 281.463 799.605 286.972C792.572 287.729 785.799 289.717 779.711 292.812C767.45 299.259 761.199 312.813 761.042 323.868C769.424 324.191 777.45 326.851 783.889 331.44C785.564 326.341 787.155 319.599 790.611 312.197C784.946 332.654 781.187 359.834 789.197 386.443H820.902V357.727H848.639V386.443H880.333C888.301 359.834 884.584 332.654 878.92 312.197C882.386 319.599 883.967 326.341 885.652 331.44C892.104 326.84 900.151 324.18 908.552 323.868V323.868Z" fill="#154579"/>
<path d="M881.872 389.113H845.518V360.397H823.017V389.113H786.663L786.161 387.434C780.663 369.067 780.737 350.459 782.925 334.475L781.69 333.582C775.714 329.359 768.3 326.892 760.549 326.546H757.9V324.287C758.057 313.028 764.277 298.473 777.795 291.365C783.722 288.327 790.287 286.303 797.123 285.41C799.27 280.642 800.746 277.936 800.819 277.811L801.521 276.534H866.931L867.632 277.811C867.695 277.936 869.182 280.642 871.318 285.41C878.157 286.303 884.726 288.326 890.657 291.365C904.196 298.509 910.405 313.028 910.551 324.287V326.555H907.976C900.229 326.903 892.819 329.37 886.846 333.591L885.61 334.484C887.799 350.467 887.872 369.076 882.375 387.443L881.872 389.113ZM850.754 384.648H877.789C885.202 358.164 880.878 331.234 875.873 313.153L880.857 311.813C883.085 316.785 884.925 321.876 886.364 327.055C886.469 327.403 886.574 327.743 886.668 328.073C892.23 324.886 898.607 322.883 905.264 322.234C904.437 312.786 898.898 300.911 887.956 295.151C882.186 292.221 875.771 290.336 869.109 289.615L867.57 289.428L867.025 288.187C865.559 284.847 864.334 282.374 863.633 280.99H804.945C804.233 282.374 803.018 284.847 801.552 288.187L801.008 289.428L799.469 289.615C792.807 290.336 786.391 292.221 780.622 295.151C769.627 300.92 764.109 312.786 763.272 322.234C769.942 322.881 776.334 324.884 781.909 328.073C782.004 327.743 782.108 327.403 782.213 327.055C783.647 321.875 785.487 316.783 787.721 311.813L792.705 313.153C787.689 331.234 783.365 358.164 790.789 384.648H817.824V355.932H850.796L850.754 384.648Z" fill="#231F20"/>
<line x1="655.108" y1="403.484" x2="655.108" y2="3.47122" stroke="black" stroke-width="10"/>
<line x1="629.101" y1="27.2146" x2="846.152" y2="27.2146" stroke="black" stroke-width="10"/>
<line x1="834.726" y1="1.07593" x2="834.726" y2="123.236" stroke="black"/>
<path d="M890.606 146.849H777.846C759.075 146.849 743.859 160.975 743.859 178.4V252.1C743.859 269.525 759.075 283.65 777.846 283.65H890.606C909.376 283.65 924.592 269.525 924.592 252.1V178.4C924.592 160.975 909.376 146.849 890.606 146.849Z" fill="#EBB787"/>
<path d="M890.606 286.115H777.846C768.131 286.105 758.818 282.518 751.949 276.141C745.079 269.764 741.215 261.118 741.204 252.1V178.4C741.215 169.381 745.079 160.736 751.949 154.359C758.818 147.982 768.131 144.395 777.846 144.384H890.606C900.32 144.395 909.634 147.982 916.503 154.359C923.372 160.736 927.236 169.381 927.248 178.4V252.1C927.236 261.118 923.372 269.764 916.503 276.141C909.634 282.518 900.32 286.105 890.606 286.115V286.115ZM777.846 149.314C769.54 149.324 761.577 152.392 755.704 157.845C749.83 163.297 746.526 170.689 746.514 178.4V252.1C746.523 259.811 749.827 267.205 755.7 272.658C761.574 278.111 769.539 281.178 777.846 281.185H890.606C898.913 281.178 906.877 278.111 912.751 272.658C918.625 267.205 921.929 259.811 921.937 252.1V178.4C921.926 170.689 918.621 163.297 912.748 157.845C906.875 152.392 898.912 149.324 890.606 149.314H777.846Z" fill="#231F20"/>
<path d="M794.393 231.809C801.725 231.809 807.669 226.291 807.669 219.485C807.669 212.678 801.725 207.16 794.393 207.16C787.061 207.16 781.117 212.678 781.117 219.485C781.117 226.291 787.061 231.809 794.393 231.809Z" fill="#231F20"/>
<path d="M874.048 231.809C881.38 231.809 887.324 226.291 887.324 219.485C887.324 212.678 881.38 207.16 874.048 207.16C866.716 207.16 860.772 212.678 860.772 219.485C860.772 226.291 866.716 231.809 874.048 231.809Z" fill="#231F20"/>
<path d="M794.393 215.748C794.395 216.408 794.186 217.053 793.792 217.603C793.399 218.152 792.838 218.581 792.182 218.835C791.525 219.088 790.803 219.155 790.105 219.027C789.408 218.898 788.767 218.581 788.265 218.114C787.762 217.647 787.42 217.053 787.282 216.405C787.143 215.758 787.215 215.087 787.488 214.478C787.761 213.868 788.223 213.348 788.815 212.983C789.407 212.617 790.103 212.423 790.814 212.425C791.763 212.425 792.673 212.775 793.344 213.398C794.016 214.021 794.393 214.867 794.393 215.748V215.748Z" fill="white"/>
<path d="M874.632 215.748C874.634 216.407 874.426 217.053 874.033 217.602C873.639 218.151 873.079 218.58 872.424 218.834C871.768 219.087 871.046 219.155 870.349 219.027C869.652 218.9 869.011 218.583 868.508 218.118C868.005 217.652 867.662 217.058 867.523 216.411C867.383 215.765 867.454 215.094 867.725 214.485C867.996 213.875 868.457 213.354 869.047 212.987C869.638 212.621 870.332 212.425 871.043 212.425C871.993 212.425 872.904 212.775 873.577 213.398C874.25 214.02 874.63 214.866 874.632 215.748Z" fill="white"/>
<path d="M890.606 149.314H777.846C769.54 149.325 761.577 152.392 755.704 157.845C749.83 163.297 746.526 170.689 746.515 178.4V233.613L752.409 227.589L752.515 226.84C752.6 226.307 761.245 172.997 807.095 172.997C816.069 173.17 824.943 174.791 833.318 177.789V177.789C829.645 182.063 827.722 187.408 827.891 192.874C827.891 206.016 850.555 205.356 850.194 192.874C850.194 192.874 836.387 204.37 837.099 192.213C837.555 184.414 848.155 180.234 855.377 176.438C858.308 175.403 863.215 173.273 870.841 173.805C885.444 176.349 897.17 184.976 905.772 199.558C910.684 208.088 914.097 217.291 915.883 226.82L916 227.569L921.895 233.594V178.38C921.878 170.68 918.577 163.299 912.713 157.852C906.85 152.405 898.901 149.335 890.606 149.314Z" fill="#D69576"/>
<path d="M863.555 124.586C854.442 123.955 846.87 123.6 839.722 123.383C836.185 123.285 832.723 123.236 829.441 123.236C806.267 123.236 787.765 125.631 772.875 130.571C752.696 137.256 741.204 150.556 741.204 167.051V231.602L752.441 220.165L752.547 219.415C752.632 218.883 761.277 165.572 807.127 165.572C816.101 165.746 824.974 167.367 833.35 170.364V170.364C829.677 174.639 827.754 179.983 827.922 185.449C827.922 198.592 850.587 197.932 850.226 185.449C850.226 185.449 836.419 196.946 837.131 184.789C837.587 176.99 848.187 172.809 855.409 169.013C858.34 167.978 863.247 165.849 870.873 166.381C885.476 168.925 897.201 177.552 905.804 192.134C910.716 200.664 914.129 209.867 915.915 219.396L916.032 220.145L927.237 231.592V167.061C927.248 142.166 905.22 127.485 863.555 124.586Z" fill="#231F20"/>
<path d="M814.487 267.441C815.982 265.6 817.66 263.893 819.5 262.344C821.352 260.728 823.334 259.245 825.427 257.907C826 257.532 826.605 257.168 827.243 256.813C827.882 256.453 828.542 256.124 829.218 255.827C829.547 255.659 829.908 255.501 830.28 255.344C830.652 255.186 831.002 255.038 831.427 254.91L832.734 254.535C832.978 254.486 833.275 254.456 833.551 254.417L833.976 254.367H834.189H834.412C834.55 254.367 834.136 254.367 834.73 254.367C835.102 254.367 835.421 254.446 835.792 254.515C836.164 254.584 836.854 254.762 837.332 254.92C837.81 255.077 838.118 255.206 838.522 255.363C838.886 255.505 839.24 255.666 839.584 255.846C840.261 256.142 840.921 256.471 841.559 256.832C842.197 257.177 842.802 257.542 843.376 257.917C845.467 259.258 847.447 260.741 849.302 262.354C851.136 263.909 852.811 265.619 854.304 267.461C854.304 267.461 853.593 267.224 852.403 266.751C851.214 266.278 849.514 265.588 847.56 264.71L840.986 261.693C839.807 261.151 838.586 260.609 837.396 260.135C837.106 260.008 836.808 259.897 836.504 259.8C836.238 259.721 835.888 259.573 835.676 259.514C835.494 259.472 835.316 259.416 835.145 259.347C834.847 259.297 834.444 259.268 834.082 259.228H834.146C834.061 259.228 833.997 259.228 833.891 259.228L833.116 259.435C832.553 259.642 831.969 259.79 831.364 260.056C830.174 260.53 828.953 261.042 827.774 261.614L821.199 264.631C819.245 265.519 817.557 266.209 816.356 266.682C815.156 267.155 814.487 267.441 814.487 267.441Z" fill="#231F20"/>
<path d="M814.487 267.441C815.982 265.6 817.66 263.893 819.5 262.344C821.352 260.728 823.334 259.245 825.427 257.907C826 257.532 826.605 257.168 827.243 256.813C827.882 256.453 828.542 256.124 829.218 255.827C829.547 255.659 829.908 255.501 830.28 255.344C830.652 255.186 831.002 255.038 831.427 254.91L832.734 254.535C832.978 254.486 833.275 254.456 833.551 254.417L833.976 254.367H834.189H834.412C834.55 254.367 834.136 254.367 834.73 254.367C835.102 254.367 835.421 254.446 835.792 254.515C836.164 254.584 836.854 254.762 837.332 254.92C837.81 255.077 838.118 255.206 838.522 255.363C838.886 255.505 839.24 255.666 839.584 255.846C840.261 256.142 840.921 256.471 841.559 256.832C842.197 257.177 842.802 257.542 843.376 257.917C845.467 259.258 847.447 260.741 849.302 262.354C851.136 263.909 852.811 265.619 854.304 267.461C854.304 267.461 853.593 267.224 852.403 266.751C851.214 266.278 849.514 265.588 847.56 264.71L840.986 261.693C839.807 261.151 838.586 260.609 837.396 260.135C837.106 260.008 836.808 259.897 836.504 259.8C836.238 259.721 835.888 259.573 835.676 259.514C835.494 259.472 835.316 259.416 835.145 259.347C834.847 259.297 834.444 259.268 834.082 259.228H834.146C834.061 259.228 833.997 259.228 833.891 259.228L833.116 259.435C832.553 259.642 831.969 259.79 831.364 260.056C830.174 260.53 828.953 261.042 827.774 261.614L821.199 264.631C819.245 265.519 817.557 266.209 816.356 266.682C815.156 267.155 814.487 267.441 814.487 267.441Z" fill="#231F20"/>
<path d="M1131.26 301.469C1131.26 301.469 1110.41 297.576 1101.87 315.208C1093.33 332.84 1096.39 347.112 1083.04 343.303C1069.68 339.494 1072.57 309.42 1091.32 299.065C1107.52 290.116 1127.64 293.817 1133.74 293.551L1131.26 301.469Z" fill="#EBB787"/>
<path d="M1086.9 345.998C1085.34 345.971 1083.8 345.73 1082.33 345.282C1077.15 343.802 1073.64 339.036 1072.71 332.208C1071.15 320.806 1076.71 304.696 1090.1 297.277C1097.85 292.994 1107.32 290.906 1119.04 290.906C1122.71 290.906 1126.01 291.106 1128.66 291.264C1130.77 291.388 1132.51 291.497 1133.63 291.447L1136.85 291.314L1132.91 303.88L1130.79 303.481C1129.32 303.254 1127.83 303.146 1126.34 303.157C1120.32 303.157 1109.41 304.82 1104 316.015C1101.67 321.044 1099.81 326.238 1098.43 331.543C1096.14 339.602 1094.32 345.973 1086.89 345.973L1086.9 345.998ZM1119.08 295.089C1108.24 295.089 1099.58 296.969 1092.57 300.836C1081.25 307.091 1075.95 321.438 1077.35 331.701C1078.05 336.849 1080.4 340.359 1083.78 341.315C1084.79 341.632 1085.86 341.809 1086.93 341.839V341.839C1090.43 341.839 1091.65 338.745 1093.99 330.536C1095.42 325.019 1097.36 319.617 1099.78 314.385C1106.28 301.019 1119.27 299.023 1126.38 299.023C1127.64 299.023 1128.74 299.09 1129.61 299.165L1130.74 295.572L1128.39 295.439C1125.77 295.281 1122.55 295.089 1119.08 295.089Z" fill="#231F20"/>
<path d="M1223.1 323.868C1222.96 312.813 1216.7 299.259 1204.44 292.812C1198.35 289.718 1191.58 287.73 1184.55 286.972C1182.13 281.463 1180.36 278.32 1180.36 278.32H1118.34C1118.34 278.32 1116.62 281.463 1114.16 286.972C1107.12 287.729 1100.35 289.717 1094.26 292.812C1082 299.259 1075.75 312.813 1075.59 323.868C1083.97 324.191 1092 326.851 1098.44 331.44C1100.11 326.341 1101.71 319.599 1105.16 312.197C1099.5 332.654 1095.74 359.834 1103.75 386.443H1135.45V357.727H1163.19V386.443H1194.88C1202.85 359.834 1199.13 332.654 1193.47 312.197C1196.94 319.599 1198.52 326.341 1200.2 331.44C1206.65 326.84 1214.7 324.18 1223.1 323.868V323.868Z" fill="#154579"/>
<path d="M1196.42 389.113H1160.07V360.397H1137.57V389.113H1101.21L1100.71 387.434C1095.21 369.067 1095.29 350.459 1097.48 334.475L1096.24 333.582C1090.26 329.359 1082.85 326.892 1075.1 326.546H1072.45V324.287C1072.61 313.028 1078.83 298.473 1092.34 291.365C1098.27 288.327 1104.84 286.303 1111.67 285.41C1113.82 280.642 1115.3 277.936 1115.37 277.811L1116.07 276.534H1181.48L1182.18 277.811C1182.25 277.936 1183.73 280.642 1185.87 285.41C1192.71 286.303 1199.28 288.326 1205.21 291.365C1218.75 298.509 1224.95 313.028 1225.1 324.287V326.555H1222.53C1214.78 326.903 1207.37 329.37 1201.4 333.591L1200.16 334.484C1202.35 350.467 1202.42 369.076 1196.93 387.443L1196.42 389.113ZM1165.3 384.648H1192.34C1199.75 358.164 1195.43 331.234 1190.42 313.153L1195.41 311.813C1197.64 316.785 1199.48 321.876 1200.91 327.055C1201.02 327.403 1201.12 327.743 1201.22 328.073C1206.78 324.886 1213.16 322.883 1219.81 322.234C1218.99 312.786 1213.45 300.911 1202.51 295.151C1196.74 292.221 1190.32 290.336 1183.66 289.615L1182.12 289.428L1181.58 288.187C1180.11 284.847 1178.88 282.374 1178.18 280.99H1119.49C1118.78 282.374 1117.57 284.847 1116.1 288.187L1115.56 289.428L1114.02 289.615C1107.36 290.336 1100.94 292.221 1095.17 295.151C1084.18 300.92 1078.66 312.786 1077.82 322.234C1084.49 322.881 1090.88 324.884 1096.46 328.073C1096.55 327.743 1096.66 327.403 1096.76 327.055C1098.2 321.875 1100.04 316.783 1102.27 311.813L1107.25 313.153C1102.24 331.234 1097.92 358.164 1105.34 384.648H1132.37V355.932H1165.35L1165.3 384.648Z" fill="#231F20"/>
<line x1="969.659" y1="403.484" x2="969.659" y2="3.47122" stroke="black" stroke-width="10"/>
<line x1="943.651" y1="27.2146" x2="1160.7" y2="27.2146" stroke="black" stroke-width="10"/>
<line x1="1149.28" y1="1.07593" x2="1149.28" y2="123.236" stroke="black"/>
<path d="M1205.16 146.849H1092.4C1073.63 146.849 1058.41 160.975 1058.41 178.4V252.1C1058.41 269.525 1073.63 283.65 1092.4 283.65H1205.16C1223.93 283.65 1239.14 269.525 1239.14 252.1V178.4C1239.14 160.975 1223.93 146.849 1205.16 146.849Z" fill="#EBB787"/>
<path d="M1205.16 286.115H1092.4C1082.68 286.105 1073.37 282.518 1066.5 276.141C1059.63 269.764 1055.77 261.118 1055.75 252.1V178.4C1055.77 169.381 1059.63 160.736 1066.5 154.359C1073.37 147.982 1082.68 144.395 1092.4 144.384H1205.16C1214.87 144.395 1224.18 147.982 1231.05 154.359C1237.92 160.736 1241.79 169.381 1241.8 178.4V252.1C1241.79 261.118 1237.92 269.764 1231.05 276.141C1224.18 282.518 1214.87 286.105 1205.16 286.115V286.115ZM1092.4 149.314C1084.09 149.324 1076.13 152.392 1070.25 157.845C1064.38 163.297 1061.08 170.689 1061.06 178.4V252.1C1061.07 259.811 1064.38 267.205 1070.25 272.658C1076.12 278.111 1084.09 281.178 1092.4 281.185H1205.16C1213.46 281.178 1221.43 278.111 1227.3 272.658C1233.18 267.205 1236.48 259.811 1236.49 252.1V178.4C1236.48 170.689 1233.17 163.297 1227.3 157.845C1221.42 152.392 1213.46 149.324 1205.16 149.314H1092.4Z" fill="#231F20"/>
<path d="M1108.94 231.809C1116.28 231.809 1122.22 226.291 1122.22 219.485C1122.22 212.678 1116.28 207.16 1108.94 207.16C1101.61 207.16 1095.67 212.678 1095.67 219.485C1095.67 226.291 1101.61 231.809 1108.94 231.809Z" fill="#231F20"/>
<path d="M1188.6 231.809C1195.93 231.809 1201.87 226.291 1201.87 219.485C1201.87 212.678 1195.93 207.16 1188.6 207.16C1181.27 207.16 1175.32 212.678 1175.32 219.485C1175.32 226.291 1181.27 231.809 1188.6 231.809Z" fill="#231F20"/>
<path d="M1108.94 215.748C1108.95 216.408 1108.74 217.053 1108.34 217.603C1107.95 218.152 1107.39 218.581 1106.73 218.835C1106.08 219.088 1105.35 219.155 1104.66 219.027C1103.96 218.898 1103.32 218.581 1102.81 218.114C1102.31 217.647 1101.97 217.053 1101.83 216.405C1101.69 215.758 1101.77 215.087 1102.04 214.478C1102.31 213.868 1102.77 213.348 1103.37 212.983C1103.96 212.617 1104.65 212.423 1105.36 212.425C1106.31 212.425 1107.22 212.775 1107.89 213.398C1108.57 214.021 1108.94 214.867 1108.94 215.748V215.748Z" fill="white"/>
<path d="M1189.18 215.748C1189.18 216.407 1188.98 217.053 1188.58 217.602C1188.19 218.151 1187.63 218.58 1186.97 218.834C1186.32 219.087 1185.6 219.155 1184.9 219.027C1184.2 218.9 1183.56 218.583 1183.06 218.118C1182.56 217.652 1182.21 217.058 1182.07 216.411C1181.93 215.765 1182 215.094 1182.28 214.485C1182.55 213.875 1183.01 213.354 1183.6 212.987C1184.19 212.621 1184.88 212.425 1185.59 212.425C1186.54 212.425 1187.45 212.775 1188.13 213.398C1188.8 214.02 1189.18 214.866 1189.18 215.748Z" fill="white"/>
<path d="M1205.16 149.314H1092.4C1084.09 149.325 1076.13 152.392 1070.25 157.845C1064.38 163.297 1061.08 170.689 1061.06 178.4V233.613L1066.96 227.589L1067.07 226.84C1067.15 226.307 1075.8 172.997 1121.65 172.997C1130.62 173.17 1139.49 174.791 1147.87 177.789V177.789C1144.2 182.063 1142.27 187.408 1142.44 192.874C1142.44 206.016 1165.11 205.356 1164.74 192.874C1164.74 192.874 1150.94 204.37 1151.65 192.213C1152.11 184.414 1162.71 180.234 1169.93 176.438C1172.86 175.403 1177.77 173.273 1185.39 173.805C1199.99 176.349 1211.72 184.976 1220.32 199.558C1225.23 208.088 1228.65 217.291 1230.43 226.82L1230.55 227.569L1236.44 233.594V178.38C1236.43 170.68 1233.13 163.299 1227.26 157.852C1221.4 152.405 1213.45 149.335 1205.16 149.314Z" fill="#D69576"/>
<path d="M1178.11 124.586C1168.99 123.955 1161.42 123.6 1154.27 123.383C1150.74 123.285 1147.27 123.236 1143.99 123.236C1120.82 123.236 1102.32 125.631 1087.43 130.571C1067.25 137.256 1055.75 150.556 1055.75 167.051V231.602L1066.99 220.165L1067.1 219.415C1067.18 218.883 1075.83 165.572 1121.68 165.572C1130.65 165.746 1139.52 167.367 1147.9 170.364V170.364C1144.23 174.639 1142.3 179.983 1142.47 185.449C1142.47 198.592 1165.14 197.932 1164.78 185.449C1164.78 185.449 1150.97 196.946 1151.68 184.789C1152.14 176.99 1162.74 172.809 1169.96 169.013C1172.89 167.978 1177.8 165.849 1185.42 166.381C1200.03 168.925 1211.75 177.552 1220.35 192.134C1225.27 200.664 1228.68 209.867 1230.47 219.396L1230.58 220.145L1241.79 231.592V167.061C1241.8 142.166 1219.77 127.485 1178.11 124.586Z" fill="#231F20"/>
<path d="M1129.04 267.441C1130.53 265.6 1132.21 263.893 1134.05 262.344C1135.9 260.728 1137.88 259.245 1139.98 257.907C1140.55 257.532 1141.16 257.168 1141.79 256.813C1142.43 256.453 1143.09 256.124 1143.77 255.827C1144.1 255.659 1144.46 255.501 1144.83 255.344C1145.2 255.186 1145.55 255.038 1145.98 254.91L1147.28 254.535C1147.53 254.486 1147.83 254.456 1148.1 254.417L1148.53 254.367H1148.74H1148.96C1149.1 254.367 1148.69 254.367 1149.28 254.367C1149.65 254.367 1149.97 254.446 1150.34 254.515C1150.71 254.584 1151.4 254.762 1151.88 254.92C1152.36 255.077 1152.67 255.206 1153.07 255.363C1153.44 255.505 1153.79 255.666 1154.13 255.846C1154.81 256.142 1155.47 256.471 1156.11 256.832C1156.75 257.177 1157.35 257.542 1157.93 257.917C1160.02 259.258 1162 260.741 1163.85 262.354C1165.69 263.909 1167.36 265.619 1168.85 267.461C1168.85 267.461 1168.14 267.224 1166.95 266.751C1165.76 266.278 1164.06 265.588 1162.11 264.71L1155.54 261.693C1154.36 261.151 1153.14 260.609 1151.95 260.135C1151.66 260.008 1151.36 259.897 1151.05 259.8C1150.79 259.721 1150.44 259.573 1150.23 259.514C1150.04 259.472 1149.87 259.416 1149.69 259.347C1149.4 259.297 1148.99 259.268 1148.63 259.228H1148.7C1148.61 259.228 1148.55 259.228 1148.44 259.228L1147.67 259.435C1147.1 259.642 1146.52 259.79 1145.91 260.056C1144.72 260.53 1143.5 261.042 1142.32 261.614L1135.75 264.631C1133.8 265.519 1132.11 266.209 1130.91 266.682C1129.71 267.155 1129.04 267.441 1129.04 267.441Z" fill="#231F20"/>
<path d="M1129.04 267.441C1130.53 265.6 1132.21 263.893 1134.05 262.344C1135.9 260.728 1137.88 259.245 1139.98 257.907C1140.55 257.532 1141.16 257.168 1141.79 256.813C1142.43 256.453 1143.09 256.124 1143.77 255.827C1144.1 255.659 1144.46 255.501 1144.83 255.344C1145.2 255.186 1145.55 255.038 1145.98 254.91L1147.28 254.535C1147.53 254.486 1147.83 254.456 1148.1 254.417L1148.53 254.367H1148.74H1148.96C1149.1 254.367 1148.69 254.367 1149.28 254.367C1149.65 254.367 1149.97 254.446 1150.34 254.515C1150.71 254.584 1151.4 254.762 1151.88 254.92C1152.36 255.077 1152.67 255.206 1153.07 255.363C1153.44 255.505 1153.79 255.666 1154.13 255.846C1154.81 256.142 1155.47 256.471 1156.11 256.832C1156.75 257.177 1157.35 257.542 1157.93 257.917C1160.02 259.258 1162 260.741 1163.85 262.354C1165.69 263.909 1167.36 265.619 1168.85 267.461C1168.85 267.461 1168.14 267.224 1166.95 266.751C1165.76 266.278 1164.06 265.588 1162.11 264.71L1155.54 261.693C1154.36 261.151 1153.14 260.609 1151.95 260.135C1151.66 260.008 1151.36 259.897 1151.05 259.8C1150.79 259.721 1150.44 259.573 1150.23 259.514C1150.04 259.472 1149.87 259.416 1149.69 259.347C1149.4 259.297 1148.99 259.268 1148.63 259.228H1148.7C1148.61 259.228 1148.55 259.228 1148.44 259.228L1147.67 259.435C1147.1 259.642 1146.52 259.79 1145.91 260.056C1144.72 260.53 1143.5 261.042 1142.32 261.614L1135.75 264.631C1133.8 265.519 1132.11 266.209 1130.91 266.682C1129.71 267.155 1129.04 267.441 1129.04 267.441Z" fill="#231F20"/>
<path d="M1485.21 303.844C1485.21 303.844 1504.53 299.95 1512.43 317.59C1520.32 335.23 1517.5 349.508 1529.86 345.697C1542.23 341.886 1539.55 311.798 1522.2 301.439C1507.19 292.486 1488.57 296.189 1482.92 295.922L1485.21 303.844Z" fill="#EBB787"/>
<path d="M1526.29 348.393C1519.41 348.393 1517.69 342.019 1515.6 333.956C1514.33 328.649 1512.6 323.453 1510.44 318.422C1505.43 307.23 1495.33 305.558 1489.76 305.558C1488.38 305.547 1487 305.656 1485.63 305.882L1483.67 306.273L1480.02 293.709L1483 293.842C1484.04 293.892 1485.66 293.784 1487.6 293.659C1490.06 293.501 1493.12 293.301 1496.52 293.301C1507.37 293.301 1516.13 295.39 1523.3 299.675C1535.7 307.072 1540.86 323.189 1539.42 334.622C1538.56 341.453 1535.3 346.221 1530.5 347.702C1529.14 348.141 1527.72 348.374 1526.29 348.393V348.393ZM1489.78 301.397C1496.4 301.397 1508.41 303.394 1514.4 316.766C1516.64 322.003 1518.43 327.407 1519.76 332.925C1522.46 343.192 1523.6 345.447 1529.22 343.742C1532.34 342.785 1534.51 339.273 1535.16 334.123C1536.47 323.855 1531.55 309.502 1521.07 303.245C1514.59 299.375 1506.57 297.495 1496.54 297.495C1493.28 297.495 1490.3 297.686 1487.95 297.844L1485.77 297.978L1486.81 301.572C1487.58 301.464 1488.6 301.397 1489.78 301.397V301.397Z" fill="#231F20"/>
<path d="M1445.81 301.469C1445.81 301.469 1424.96 297.576 1416.42 315.208C1407.88 332.84 1410.94 347.112 1397.59 343.303C1384.23 339.494 1387.12 309.42 1405.87 299.065C1422.07 290.116 1442.19 293.817 1448.29 293.551L1445.81 301.469Z" fill="#EBB787"/>
<path d="M1401.45 345.998C1399.89 345.971 1398.35 345.73 1396.88 345.282C1391.7 343.802 1388.19 339.036 1387.26 332.208C1385.7 320.806 1391.26 304.696 1404.65 297.277C1412.4 292.994 1421.87 290.906 1433.59 290.906C1437.26 290.906 1440.56 291.106 1443.21 291.264C1445.32 291.388 1447.06 291.497 1448.18 291.447L1451.4 291.314L1447.47 303.88L1445.34 303.481C1443.87 303.254 1442.38 303.146 1440.89 303.157C1434.87 303.157 1423.96 304.82 1418.55 316.015C1416.22 321.044 1414.36 326.238 1412.98 331.543C1410.69 339.602 1408.87 345.973 1401.44 345.973L1401.45 345.998ZM1433.63 295.089C1422.79 295.089 1414.14 296.969 1407.12 300.836C1395.8 307.091 1390.5 321.438 1391.9 331.701C1392.6 336.849 1394.95 340.359 1398.33 341.315C1399.35 341.632 1400.41 341.809 1401.49 341.839V341.839C1404.98 341.839 1406.2 338.745 1408.54 330.536C1409.97 325.019 1411.91 319.617 1414.33 314.385C1420.83 301.019 1433.82 299.023 1440.93 299.023C1442.19 299.023 1443.29 299.09 1444.16 299.165L1445.29 295.572L1442.95 295.439C1440.32 295.281 1437.1 295.089 1433.63 295.089Z" fill="#231F20"/>
<path d="M1537.65 323.868C1537.51 312.813 1531.25 299.259 1518.99 292.812C1512.9 289.718 1506.13 287.73 1499.1 286.972C1496.68 281.463 1494.91 278.32 1494.91 278.32H1432.89C1432.89 278.32 1431.17 281.463 1428.71 286.972C1421.67 287.729 1414.9 289.717 1408.81 292.812C1396.55 299.259 1390.3 312.813 1390.14 323.868C1398.52 324.191 1406.55 326.851 1412.99 331.44C1414.66 326.341 1416.26 319.599 1419.71 312.197C1414.05 332.654 1410.29 359.834 1418.3 386.443H1450V357.727H1477.74V386.443H1509.43C1517.4 359.834 1513.69 332.654 1508.02 312.197C1511.49 319.599 1513.07 326.341 1514.75 331.44C1521.2 326.84 1529.25 324.18 1537.65 323.868V323.868Z" fill="#154579"/>
<path d="M1510.97 389.113H1474.62V360.397H1452.12V389.113H1415.76L1415.26 387.434C1409.76 369.067 1409.84 350.459 1412.03 334.475L1410.79 333.582C1404.81 329.359 1397.4 326.892 1389.65 326.546H1387V324.287C1387.16 313.028 1393.38 298.473 1406.9 291.365C1412.82 288.327 1419.39 286.303 1426.22 285.41C1428.37 280.642 1429.85 277.936 1429.92 277.811L1430.62 276.534H1496.03L1496.73 277.811C1496.8 277.936 1498.28 280.642 1500.42 285.41C1507.26 286.303 1513.83 288.326 1519.76 291.365C1533.3 298.509 1539.51 313.028 1539.65 324.287V326.555H1537.08C1529.33 326.903 1521.92 329.37 1515.95 333.591L1514.71 334.484C1516.9 350.467 1516.97 369.076 1511.48 387.443L1510.97 389.113ZM1479.85 384.648H1506.89C1514.3 358.164 1509.98 331.234 1504.97 313.153L1509.96 311.813C1512.19 316.785 1514.03 321.876 1515.47 327.055C1515.57 327.403 1515.67 327.743 1515.77 328.073C1521.33 324.886 1527.71 322.883 1534.36 322.234C1533.54 312.786 1528 300.911 1517.06 295.151C1511.29 292.221 1504.87 290.336 1498.21 289.615L1496.67 289.428L1496.13 288.187C1494.66 284.847 1493.44 282.374 1492.73 280.99H1434.05C1433.33 282.374 1432.12 284.847 1430.65 288.187L1430.11 289.428L1428.57 289.615C1421.91 290.336 1415.49 292.221 1409.72 295.151C1398.73 300.92 1393.21 312.786 1392.37 322.234C1399.04 322.881 1405.43 324.884 1411.01 328.073C1411.1 327.743 1411.21 327.403 1411.31 327.055C1412.75 321.875 1414.59 316.783 1416.82 311.813L1421.81 313.153C1416.79 331.234 1412.47 358.164 1419.89 384.648H1446.92V355.932H1479.9L1479.85 384.648Z" fill="#231F20"/>
<line x1="1284.21" y1="403.484" x2="1284.21" y2="3.47122" stroke="black" stroke-width="10"/>
<line x1="1258.2" y1="27.2146" x2="1475.25" y2="27.2146" stroke="black" stroke-width="10"/>
<line x1="1463.83" y1="1.07593" x2="1463.83" y2="123.236" stroke="black"/>
<path d="M1519.71 146.849H1406.95C1388.18 146.849 1372.96 160.975 1372.96 178.4V252.1C1372.96 269.525 1388.18 283.65 1406.95 283.65H1519.71C1538.48 283.65 1553.69 269.525 1553.69 252.1V178.4C1553.69 160.975 1538.48 146.849 1519.71 146.849Z" fill="#EBB787"/>
<path d="M1519.71 286.115H1406.95C1397.23 286.105 1387.92 282.518 1381.05 276.141C1374.18 269.764 1370.32 261.118 1370.31 252.1V178.4C1370.32 169.381 1374.18 160.736 1381.05 154.359C1387.92 147.982 1397.23 144.395 1406.95 144.384H1519.71C1529.42 144.395 1538.73 147.982 1545.6 154.359C1552.47 160.736 1556.34 169.381 1556.35 178.4V252.1C1556.34 261.118 1552.47 269.764 1545.6 276.141C1538.73 282.518 1529.42 286.105 1519.71 286.115V286.115ZM1406.95 149.314C1398.64 149.324 1390.68 152.392 1384.8 157.845C1378.93 163.297 1375.63 170.689 1375.62 178.4V252.1C1375.62 259.811 1378.93 267.205 1384.8 272.658C1390.68 278.111 1398.64 281.178 1406.95 281.185H1519.71C1528.01 281.178 1535.98 278.111 1541.85 272.658C1547.73 267.205 1551.03 259.811 1551.04 252.1V178.4C1551.03 170.689 1547.72 163.297 1541.85 157.845C1535.98 152.392 1528.01 149.324 1519.71 149.314H1406.95Z" fill="#231F20"/>
<path d="M1423.49 231.809C1430.83 231.809 1436.77 226.291 1436.77 219.485C1436.77 212.678 1430.83 207.16 1423.49 207.16C1416.16 207.16 1410.22 212.678 1410.22 219.485C1410.22 226.291 1416.16 231.809 1423.49 231.809Z" fill="#231F20"/>
<path d="M1503.15 231.809C1510.48 231.809 1516.43 226.291 1516.43 219.485C1516.43 212.678 1510.48 207.16 1503.15 207.16C1495.82 207.16 1489.87 212.678 1489.87 219.485C1489.87 226.291 1495.82 231.809 1503.15 231.809Z" fill="#231F20"/>
<path d="M1423.49 215.748C1423.5 216.408 1423.29 217.053 1422.89 217.603C1422.5 218.152 1421.94 218.581 1421.28 218.835C1420.63 219.088 1419.9 219.155 1419.21 219.027C1418.51 218.898 1417.87 218.581 1417.37 218.114C1416.86 217.647 1416.52 217.053 1416.38 216.405C1416.24 215.758 1416.32 215.087 1416.59 214.478C1416.86 213.868 1417.32 213.348 1417.92 212.983C1418.51 212.617 1419.2 212.423 1419.91 212.425C1420.86 212.425 1421.77 212.775 1422.45 213.398C1423.12 214.021 1423.49 214.867 1423.49 215.748V215.748Z" fill="white"/>
<path d="M1503.73 215.748C1503.74 216.407 1503.53 217.053 1503.13 217.602C1502.74 218.151 1502.18 218.58 1501.52 218.834C1500.87 219.087 1500.15 219.155 1499.45 219.027C1498.75 218.9 1498.11 218.583 1497.61 218.118C1497.11 217.652 1496.76 217.058 1496.62 216.411C1496.48 215.765 1496.55 215.094 1496.83 214.485C1497.1 213.875 1497.56 213.354 1498.15 212.987C1498.74 212.621 1499.43 212.425 1500.14 212.425C1501.09 212.425 1502.01 212.775 1502.68 213.398C1503.35 214.02 1503.73 214.866 1503.73 215.748Z" fill="white"/>
<path d="M1519.71 149.314H1406.95C1398.64 149.325 1390.68 152.392 1384.8 157.845C1378.93 163.297 1375.63 170.689 1375.62 178.4V233.613L1381.51 227.589L1381.62 226.84C1381.7 226.307 1390.35 172.997 1436.2 172.997C1445.17 173.17 1454.04 174.791 1462.42 177.789V177.789C1458.75 182.063 1456.82 187.408 1456.99 192.874C1456.99 206.016 1479.66 205.356 1479.3 192.874C1479.3 192.874 1465.49 204.37 1466.2 192.213C1466.66 184.414 1477.26 180.234 1484.48 176.438C1487.41 175.403 1492.32 173.273 1499.94 173.805C1514.55 176.349 1526.27 184.976 1534.87 199.558C1539.78 208.088 1543.2 217.291 1544.98 226.82L1545.1 227.569L1551 233.594V178.38C1550.98 170.68 1547.68 163.299 1541.81 157.852C1535.95 152.405 1528 149.335 1519.71 149.314Z" fill="#D69576"/>
<path d="M1492.66 124.586C1483.54 123.955 1475.97 123.6 1468.82 123.383C1465.29 123.285 1461.82 123.236 1458.54 123.236C1435.37 123.236 1416.87 125.631 1401.98 130.571C1381.8 137.256 1370.31 150.556 1370.31 167.051V231.602L1381.54 220.165L1381.65 219.415C1381.73 218.883 1390.38 165.572 1436.23 165.572C1445.2 165.746 1454.08 167.367 1462.45 170.364V170.364C1458.78 174.639 1456.85 179.983 1457.02 185.449C1457.02 198.592 1479.69 197.932 1479.33 185.449C1479.33 185.449 1465.52 196.946 1466.23 184.789C1466.69 176.99 1477.29 172.809 1484.51 169.013C1487.44 167.978 1492.35 165.849 1499.97 166.381C1514.58 168.925 1526.3 177.552 1534.91 192.134C1539.82 200.664 1543.23 209.867 1545.02 219.396L1545.13 220.145L1556.34 231.592V167.061C1556.35 142.166 1534.32 127.485 1492.66 124.586Z" fill="#231F20"/>
<path d="M1443.59 267.441C1445.08 265.6 1446.76 263.893 1448.6 262.344C1450.45 260.728 1452.43 259.245 1454.53 257.907C1455.1 257.532 1455.71 257.168 1456.34 256.813C1456.98 256.453 1457.64 256.124 1458.32 255.827C1458.65 255.659 1459.01 255.501 1459.38 255.344C1459.75 255.186 1460.1 255.038 1460.53 254.91L1461.83 254.535C1462.08 254.486 1462.38 254.456 1462.65 254.417L1463.08 254.367H1463.29H1463.51C1463.65 254.367 1463.24 254.367 1463.83 254.367C1464.2 254.367 1464.52 254.446 1464.89 254.515C1465.27 254.584 1465.96 254.762 1466.43 254.92C1466.91 255.077 1467.22 255.206 1467.62 255.363C1467.99 255.505 1468.34 255.666 1468.68 255.846C1469.36 256.142 1470.02 256.471 1470.66 256.832C1471.3 257.177 1471.9 257.542 1472.48 257.917C1474.57 259.258 1476.55 260.741 1478.4 262.354C1480.24 263.909 1481.91 265.619 1483.41 267.461C1483.41 267.461 1482.69 267.224 1481.5 266.751C1480.31 266.278 1478.62 265.588 1476.66 264.71L1470.09 261.693C1468.91 261.151 1467.69 260.609 1466.5 260.135C1466.21 260.008 1465.91 259.897 1465.6 259.8C1465.34 259.721 1464.99 259.573 1464.78 259.514C1464.59 259.472 1464.42 259.416 1464.25 259.347C1463.95 259.297 1463.54 259.268 1463.18 259.228H1463.25C1463.16 259.228 1463.1 259.228 1462.99 259.228L1462.22 259.435C1461.65 259.642 1461.07 259.79 1460.46 260.056C1459.27 260.53 1458.05 261.042 1456.87 261.614L1450.3 264.631C1448.35 265.519 1446.66 266.209 1445.46 266.682C1444.26 267.155 1443.59 267.441 1443.59 267.441Z" fill="#231F20"/>
<path d="M1443.59 267.441C1445.08 265.6 1446.76 263.893 1448.6 262.344C1450.45 260.728 1452.43 259.245 1454.53 257.907C1455.1 257.532 1455.71 257.168 1456.34 256.813C1456.98 256.453 1457.64 256.124 1458.32 255.827C1458.65 255.659 1459.01 255.501 1459.38 255.344C1459.75 255.186 1460.1 255.038 1460.53 254.91L1461.83 254.535C1462.08 254.486 1462.38 254.456 1462.65 254.417L1463.08 254.367H1463.29H1463.51C1463.65 254.367 1463.24 254.367 1463.83 254.367C1464.2 254.367 1464.52 254.446 1464.89 254.515C1465.27 254.584 1465.96 254.762 1466.43 254.92C1466.91 255.077 1467.22 255.206 1467.62 255.363C1467.99 255.505 1468.34 255.666 1468.68 255.846C1469.36 256.142 1470.02 256.471 1470.66 256.832C1471.3 257.177 1471.9 257.542 1472.48 257.917C1474.57 259.258 1476.55 260.741 1478.4 262.354C1480.24 263.909 1481.91 265.619 1483.41 267.461C1483.41 267.461 1482.69 267.224 1481.5 266.751C1480.31 266.278 1478.62 265.588 1476.66 264.71L1470.09 261.693C1468.91 261.151 1467.69 260.609 1466.5 260.135C1466.21 260.008 1465.91 259.897 1465.6 259.8C1465.34 259.721 1464.99 259.573 1464.78 259.514C1464.59 259.472 1464.42 259.416 1464.25 259.347C1463.95 259.297 1463.54 259.268 1463.18 259.228H1463.25C1463.16 259.228 1463.1 259.228 1462.99 259.228L1462.22 259.435C1461.65 259.642 1461.07 259.79 1460.46 260.056C1459.28 260.53 1458.05 261.042 1456.87 261.614L1450.3 264.631C1448.35 265.519 1446.66 266.209 1445.46 266.682C1444.26 267.155 1443.59 267.441 1443.59 267.441Z" fill="#231F20"/>
<path d="M1799.76 300.684C1799.76 300.684 1819.08 296.858 1826.98 314.188C1834.87 331.519 1832.05 345.547 1844.41 341.803C1856.78 338.059 1854.1 308.499 1836.75 298.321C1821.74 289.525 1803.12 293.163 1797.47 292.901L1799.76 300.684Z" fill="#EBB787"/>
<path d="M1840.84 344.451C1833.96 344.451 1832.24 338.189 1830.15 330.268C1828.88 325.053 1827.15 319.948 1824.99 315.006C1819.98 304.011 1809.88 302.368 1804.31 302.368C1802.93 302.357 1801.55 302.464 1800.18 302.686L1798.23 303.071L1794.57 290.727L1797.56 290.858C1798.59 290.907 1800.21 290.8 1802.15 290.678C1804.61 290.522 1807.67 290.326 1811.07 290.326C1821.92 290.326 1830.68 292.378 1837.86 296.588C1850.25 303.855 1855.41 319.69 1853.97 330.922C1853.11 337.634 1849.85 342.318 1845.05 343.773C1843.69 344.204 1842.27 344.433 1840.84 344.451V344.451ZM1804.33 298.28C1810.95 298.28 1822.96 300.242 1828.95 313.379C1831.19 318.524 1832.98 323.833 1834.31 329.254C1837.01 339.342 1838.15 341.557 1843.77 339.882C1846.89 338.941 1849.06 335.492 1849.71 330.432C1851.02 320.344 1846.1 306.242 1835.62 300.095C1829.14 296.294 1821.12 294.446 1811.09 294.446C1807.83 294.446 1804.85 294.634 1802.5 294.79L1800.32 294.92L1801.36 298.452C1802.14 298.346 1803.15 298.28 1804.33 298.28V298.28Z" fill="#231F20"/>
<path d="M1760.36 298.35C1760.36 298.35 1739.51 294.526 1730.97 311.849C1722.43 329.171 1725.49 343.193 1712.14 339.451C1698.78 335.708 1701.67 306.162 1720.42 295.989C1736.62 287.197 1756.74 290.833 1762.84 290.571L1760.36 298.35Z" fill="#EBB787"/>
<path d="M1716 342.098C1714.44 342.072 1712.9 341.835 1711.43 341.395C1706.25 339.941 1702.74 335.259 1701.81 328.55C1700.25 317.348 1705.81 301.521 1719.2 294.232C1726.95 290.024 1736.42 287.973 1748.14 287.973C1751.81 287.973 1755.11 288.169 1757.77 288.324C1759.87 288.447 1761.61 288.553 1762.73 288.504L1765.95 288.373L1762.02 300.72L1759.89 300.328C1758.42 300.104 1756.93 299.998 1755.44 300.009C1749.42 300.009 1738.52 301.643 1733.1 312.641C1730.77 317.582 1728.91 322.685 1727.54 327.897C1725.24 335.814 1723.42 342.074 1715.99 342.074L1716 342.098ZM1748.18 292.083C1737.34 292.083 1728.69 293.93 1721.67 297.729C1710.36 303.874 1705.05 317.969 1706.45 328.052C1707.15 333.11 1709.5 336.558 1712.88 337.498C1713.9 337.809 1714.96 337.983 1716.04 338.012V338.012C1719.53 338.012 1720.75 334.973 1723.09 326.908C1724.52 321.487 1726.46 316.18 1728.88 311.04C1735.38 297.909 1748.37 295.948 1755.48 295.948C1756.74 295.948 1757.84 296.013 1758.71 296.087L1759.84 292.557L1757.5 292.426C1754.87 292.271 1751.65 292.083 1748.18 292.083Z" fill="#231F20"/>
<path d="M1852.2 320.356C1852.06 309.496 1845.81 296.179 1833.54 289.846C1827.45 286.806 1820.68 284.853 1813.65 284.108C1811.23 278.696 1809.46 275.608 1809.46 275.608H1747.44C1747.44 275.608 1745.72 278.696 1743.26 284.108C1736.22 284.851 1729.45 286.805 1723.36 289.846C1711.1 296.179 1704.85 309.496 1704.69 320.356C1713.08 320.674 1721.1 323.287 1727.54 327.795C1729.22 322.786 1730.81 316.163 1734.26 308.891C1728.6 328.988 1724.84 355.692 1732.85 381.834H1764.55V353.622H1792.29V381.834H1823.98C1831.95 355.692 1828.24 328.988 1822.57 308.891C1826.04 316.163 1827.62 322.786 1829.3 327.795C1835.76 323.277 1843.8 320.663 1852.2 320.356V320.356Z" fill="#154579"/>
<path d="M1825.52 384.457H1789.17V356.245H1766.67V384.457H1730.31L1729.81 382.808C1724.31 364.763 1724.39 346.481 1726.58 330.778L1725.34 329.901C1719.36 325.752 1711.95 323.328 1704.2 322.988H1701.55V320.769C1701.71 309.707 1707.93 295.407 1721.45 288.425C1727.37 285.439 1733.94 283.451 1740.77 282.573C1742.92 277.889 1744.4 275.231 1744.47 275.108L1745.17 273.854H1810.58L1811.28 275.108C1811.35 275.231 1812.83 277.889 1814.97 282.573C1821.81 283.451 1828.38 285.439 1834.31 288.425C1847.85 295.443 1854.06 309.707 1854.2 320.769V322.997H1851.63C1843.88 323.338 1836.47 325.762 1830.5 329.91L1829.26 330.787C1831.45 346.49 1831.52 364.772 1826.03 382.817L1825.52 384.457ZM1794.41 380.071H1821.44C1828.85 354.052 1824.53 327.594 1819.52 309.829L1824.51 308.514C1826.74 313.398 1828.58 318.4 1830.02 323.488C1830.12 323.83 1830.22 324.164 1830.32 324.488C1835.88 321.357 1842.26 319.39 1848.91 318.751C1848.09 309.47 1842.55 297.802 1831.61 292.144C1825.84 289.265 1819.42 287.413 1812.76 286.705L1811.22 286.521L1810.68 285.302C1809.21 282.021 1807.99 279.591 1807.28 278.231H1748.6C1747.88 279.591 1746.67 282.021 1745.2 285.302L1744.66 286.521L1743.12 286.705C1736.46 287.413 1730.04 289.265 1724.27 292.144C1713.28 297.811 1707.76 309.47 1706.92 318.751C1713.59 319.388 1719.99 321.355 1725.56 324.488C1725.66 324.164 1725.76 323.83 1725.86 323.488C1727.3 318.399 1729.14 313.396 1731.37 308.514L1736.36 309.829C1731.34 327.594 1727.02 354.052 1734.44 380.071H1761.47V351.858H1794.45L1794.41 380.071Z" fill="#231F20"/>
<line x1="1598.76" y1="398.576" x2="1598.76" y2="5.58099" stroke="black" stroke-width="10"/>
<line x1="1572.75" y1="28.8203" x2="1789.8" y2="28.8203" stroke="black" stroke-width="10"/>
<line x1="1778.38" y1="3.22778" x2="1778.38" y2="123.244" stroke="black"/>
<path d="M1834.26 146.444H1721.5C1702.73 146.444 1687.51 160.321 1687.51 177.441V249.848C1687.51 266.967 1702.73 280.845 1721.5 280.845H1834.26C1853.03 280.845 1868.24 266.967 1868.24 249.848V177.441C1868.24 160.321 1853.03 146.444 1834.26 146.444Z" fill="#EBB787"/>
<path d="M1834.26 283.266H1721.5C1711.78 283.256 1702.47 279.732 1695.6 273.467C1688.73 267.202 1684.87 258.708 1684.86 249.848V177.441C1684.87 168.581 1688.73 160.086 1695.6 153.821C1702.47 147.556 1711.78 144.032 1721.5 144.022H1834.26C1843.97 144.032 1853.29 147.556 1860.15 153.821C1867.02 160.086 1870.89 168.581 1870.9 177.441V249.848C1870.89 258.708 1867.02 267.202 1860.15 273.467C1853.29 279.732 1843.97 283.256 1834.26 283.266V283.266ZM1721.5 148.865C1713.19 148.876 1705.23 151.889 1699.35 157.246C1693.48 162.603 1690.18 169.865 1690.17 177.441V249.848C1690.17 257.424 1693.48 264.688 1699.35 270.045C1705.23 275.402 1713.19 278.415 1721.5 278.423H1834.26C1842.56 278.415 1850.53 275.402 1856.4 270.045C1862.28 264.688 1865.58 257.424 1865.59 249.848V177.441C1865.58 169.865 1862.27 162.603 1856.4 157.246C1850.53 151.889 1842.56 148.876 1834.26 148.865H1721.5Z" fill="#231F20"/>
<path d="M1738.04 229.913C1745.38 229.913 1751.32 224.492 1751.32 217.805C1751.32 211.118 1745.38 205.697 1738.04 205.697C1730.71 205.697 1724.77 211.118 1724.77 217.805C1724.77 224.492 1730.71 229.913 1738.04 229.913Z" fill="#231F20"/>
<path d="M1817.7 229.913C1825.03 229.913 1830.98 224.492 1830.98 217.805C1830.98 211.118 1825.03 205.697 1817.7 205.697C1810.37 205.697 1804.42 211.118 1804.42 217.805C1804.42 224.492 1810.37 229.913 1817.7 229.913Z" fill="#231F20"/>
<path d="M1738.04 214.134C1738.05 214.782 1737.84 215.416 1737.44 215.956C1737.05 216.496 1736.49 216.917 1735.83 217.166C1735.18 217.415 1734.45 217.481 1733.76 217.355C1733.06 217.229 1732.42 216.917 1731.92 216.458C1731.41 216 1731.07 215.416 1730.93 214.78C1730.79 214.144 1730.87 213.484 1731.14 212.886C1731.41 212.287 1731.87 211.776 1732.47 211.417C1733.06 211.058 1733.75 210.867 1734.46 210.869C1735.41 210.869 1736.32 211.213 1737 211.825C1737.67 212.437 1738.04 213.268 1738.04 214.134V214.134Z" fill="white"/>
<path d="M1818.28 214.134C1818.29 214.781 1818.08 215.415 1817.68 215.955C1817.29 216.495 1816.73 216.916 1816.08 217.165C1815.42 217.415 1814.7 217.481 1814 217.356C1813.3 217.23 1812.66 216.919 1812.16 216.462C1811.66 216.004 1811.31 215.421 1811.17 214.786C1811.03 214.15 1811.1 213.491 1811.38 212.893C1811.65 212.294 1812.11 211.782 1812.7 211.422C1813.29 211.061 1813.98 210.869 1814.69 210.869C1815.64 210.869 1816.56 211.213 1817.23 211.825C1817.9 212.437 1818.28 213.267 1818.28 214.134Z" fill="white"/>
<path d="M1834.26 148.865H1721.5C1713.19 148.876 1705.23 151.89 1699.35 157.246C1693.48 162.603 1690.18 169.865 1690.17 177.441V231.686L1696.06 225.767L1696.17 225.031C1696.25 224.508 1704.9 172.133 1750.75 172.133C1759.72 172.303 1768.59 173.896 1776.97 176.84V176.84C1773.3 181.04 1771.37 186.291 1771.54 191.661C1771.54 204.573 1794.21 203.924 1793.85 191.661C1793.85 191.661 1780.04 202.955 1780.75 191.012C1781.21 183.35 1791.81 179.243 1799.03 175.513C1801.96 174.496 1806.87 172.404 1814.49 172.927C1829.1 175.426 1840.82 183.902 1849.42 198.228C1854.34 206.608 1857.75 215.65 1859.53 225.012L1859.65 225.748L1865.55 231.666V177.421C1865.53 169.856 1862.23 162.605 1856.36 157.253C1850.5 151.902 1842.55 148.886 1834.26 148.865Z" fill="#D69576"/>
<path d="M1807.21 124.571C1798.09 123.951 1790.52 123.603 1783.37 123.39C1779.84 123.293 1776.37 123.244 1773.09 123.244C1749.92 123.244 1731.42 125.598 1716.53 130.451C1696.35 137.019 1684.86 150.086 1684.86 166.291V229.709L1696.09 218.473L1696.2 217.737C1696.28 217.214 1704.93 164.839 1750.78 164.839C1759.75 165.009 1768.63 166.602 1777 169.546V169.546C1773.33 173.746 1771.41 178.997 1771.57 184.367C1771.57 197.279 1794.24 196.63 1793.88 184.367C1793.88 184.367 1780.07 195.661 1780.78 183.718C1781.24 176.056 1791.84 171.948 1799.06 168.219C1801.99 167.202 1806.9 165.11 1814.52 165.633C1829.13 168.132 1840.85 176.608 1849.46 190.934C1854.37 199.314 1857.78 208.356 1859.57 217.717L1859.68 218.454L1870.89 229.7V166.301C1870.9 141.843 1848.87 127.419 1807.21 124.571Z" fill="#231F20"/>
<path d="M1758.14 264.92C1759.63 263.111 1761.31 261.434 1763.15 259.912C1765 258.325 1766.98 256.868 1769.08 255.553C1769.65 255.185 1770.26 254.827 1770.89 254.478C1771.53 254.124 1772.19 253.801 1772.87 253.509C1773.2 253.345 1773.56 253.19 1773.93 253.035C1774.3 252.88 1774.65 252.734 1775.08 252.608L1776.38 252.24C1776.63 252.192 1776.93 252.163 1777.2 252.124L1777.63 252.076H1777.84H1778.06C1778.2 252.076 1777.79 252.076 1778.38 252.076C1778.75 252.076 1779.07 252.153 1779.44 252.221C1779.82 252.289 1780.51 252.463 1780.98 252.618C1781.46 252.773 1781.77 252.899 1782.17 253.054C1782.54 253.193 1782.89 253.352 1783.24 253.529C1783.91 253.819 1784.57 254.142 1785.21 254.497C1785.85 254.836 1786.45 255.195 1787.03 255.563C1789.12 256.88 1791.1 258.337 1792.95 259.922C1794.79 261.45 1796.46 263.129 1797.96 264.939C1797.96 264.939 1797.24 264.707 1796.05 264.242C1794.87 263.777 1793.17 263.099 1791.21 262.237L1784.64 259.273C1783.46 258.74 1782.24 258.207 1781.05 257.742C1780.76 257.618 1780.46 257.508 1780.16 257.413C1779.89 257.336 1779.54 257.19 1779.33 257.132C1779.15 257.09 1778.97 257.035 1778.8 256.967C1778.5 256.919 1778.09 256.89 1777.73 256.851H1777.8C1777.71 256.851 1777.65 256.851 1777.54 256.851L1776.77 257.055C1776.2 257.258 1775.62 257.403 1775.01 257.665C1773.83 258.13 1772.6 258.634 1771.43 259.195L1764.85 262.159C1762.9 263.031 1761.21 263.709 1760.01 264.174C1758.81 264.639 1758.14 264.92 1758.14 264.92Z" fill="#231F20"/>
<path d="M1758.14 264.92C1759.63 263.111 1761.31 261.434 1763.15 259.912C1765 258.325 1766.98 256.868 1769.08 255.553C1769.65 255.185 1770.26 254.827 1770.89 254.478C1771.53 254.124 1772.19 253.801 1772.87 253.509C1773.2 253.345 1773.56 253.19 1773.93 253.035C1774.3 252.88 1774.65 252.734 1775.08 252.608L1776.38 252.24C1776.63 252.192 1776.93 252.163 1777.2 252.124L1777.63 252.076H1777.84H1778.06C1778.2 252.076 1777.79 252.076 1778.38 252.076C1778.75 252.076 1779.07 252.153 1779.44 252.221C1779.82 252.289 1780.51 252.463 1780.98 252.618C1781.46 252.773 1781.77 252.899 1782.17 253.054C1782.54 253.193 1782.89 253.352 1783.24 253.529C1783.91 253.819 1784.57 254.142 1785.21 254.497C1785.85 254.836 1786.45 255.195 1787.03 255.563C1789.12 256.88 1791.1 258.337 1792.95 259.922C1794.79 261.45 1796.46 263.129 1797.96 264.939C1797.96 264.939 1797.24 264.707 1796.05 264.242C1794.87 263.777 1793.17 263.099 1791.21 262.237L1784.64 259.273C1783.46 258.74 1782.24 258.207 1781.05 257.742C1780.76 257.618 1780.46 257.508 1780.16 257.413C1779.89 257.336 1779.54 257.19 1779.33 257.132C1779.15 257.09 1778.97 257.035 1778.8 256.967C1778.5 256.919 1778.09 256.89 1777.73 256.851H1777.8C1777.71 256.851 1777.65 256.851 1777.54 256.851L1776.77 257.055C1776.2 257.258 1775.62 257.403 1775.01 257.665C1773.83 258.13 1772.6 258.634 1771.43 259.195L1764.85 262.159C1762.9 263.031 1761.21 263.709 1760.01 264.174C1758.81 264.639 1758.14 264.92 1758.14 264.92Z" fill="#231F20"/>
<path d="M1828.32 360.411C1828.44 367.441 1828.09 374.471 1827.28 381.431H1831.49C1832.61 381.431 1833.72 381.703 1834.76 382.231C1835.79 382.76 1836.74 383.535 1837.53 384.511C1838.32 385.488 1838.95 386.647 1839.38 387.923C1839.81 389.199 1840.03 390.566 1840.03 391.946C1840.03 394.732 1839.13 397.404 1837.53 399.373C1835.92 401.343 1833.75 402.45 1831.49 402.45H1791.2V373.553L1828.32 360.411Z" fill="#BE1E2D"/>
<path d="M1831.47 405.636H1788.61V371.144L1830.82 356.218L1830.92 360.322C1831.03 366.309 1830.79 372.298 1830.21 378.244H1831.48C1834.37 378.353 1837.12 379.843 1839.13 382.4C1841.15 384.957 1842.28 388.378 1842.28 391.94C1842.28 395.502 1841.15 398.924 1839.13 401.48C1837.12 404.037 1834.37 405.528 1831.48 405.636H1831.47ZM1793.79 399.263H1831.47C1833 399.184 1834.45 398.378 1835.52 397.014C1836.58 395.649 1837.18 393.831 1837.18 391.94C1837.18 390.049 1836.58 388.231 1835.52 386.867C1834.45 385.502 1833 384.696 1831.47 384.617H1824.29L1824.7 380.997C1825.31 375.572 1825.66 370.107 1825.74 364.631L1793.77 375.95L1793.79 399.263Z" fill="#231F20"/>
<path d="M2114.31 298.532C2114.31 298.532 2133.63 294.706 2141.53 312.036C2149.42 329.367 2146.6 343.395 2158.96 339.651C2171.33 335.907 2168.65 306.347 2151.3 296.169C2136.29 287.373 2117.67 291.011 2112.02 290.749L2114.31 298.532Z" fill="#EBB787"/>
<path d="M2155.39 342.299C2148.51 342.299 2146.79 336.038 2144.7 328.116C2143.43 322.902 2141.7 317.797 2139.54 312.854C2134.53 301.859 2124.43 300.216 2118.86 300.216C2117.48 300.206 2116.1 300.312 2114.74 300.535L2112.78 300.919L2109.12 288.575L2112.11 288.706C2113.15 288.755 2114.76 288.648 2116.7 288.526C2119.16 288.371 2122.22 288.174 2125.62 288.174C2136.47 288.174 2145.23 290.226 2152.41 294.436C2164.81 301.704 2169.96 317.538 2168.52 328.77C2167.66 335.482 2164.4 340.166 2159.6 341.621C2158.24 342.052 2156.82 342.281 2155.39 342.299V342.299ZM2118.88 296.128C2125.5 296.128 2137.51 298.09 2143.5 311.227C2145.74 316.372 2147.53 321.682 2148.87 327.103C2151.56 337.19 2152.7 339.406 2158.32 337.73C2161.45 336.79 2163.61 333.34 2164.26 328.28C2165.57 318.192 2160.65 304.091 2150.17 297.943C2143.69 294.142 2135.67 292.294 2125.64 292.294C2122.38 292.294 2119.4 292.482 2117.05 292.638L2114.87 292.769L2115.91 296.3C2116.69 296.194 2117.7 296.128 2118.88 296.128V296.128Z" fill="#231F20"/>
<path d="M2074.91 296.199C2074.91 296.199 2054.06 292.375 2045.52 309.697C2036.98 327.02 2040.04 341.041 2026.69 337.299C2013.33 333.557 2016.22 304.01 2034.97 293.837C2051.17 285.045 2071.29 288.681 2077.39 288.42L2074.91 296.199Z" fill="#EBB787"/>
<path d="M2030.55 339.946C2028.99 339.92 2027.45 339.683 2025.98 339.244C2020.8 337.789 2017.29 333.107 2016.36 326.399C2014.8 315.196 2020.36 299.369 2033.75 292.08C2041.5 287.872 2050.97 285.821 2062.69 285.821C2066.36 285.821 2069.66 286.017 2072.32 286.173C2074.42 286.295 2076.16 286.401 2077.28 286.352L2080.5 286.222L2076.57 298.568L2074.44 298.176C2072.97 297.953 2071.48 297.846 2070 297.857C2063.97 297.857 2053.07 299.491 2047.65 310.49C2045.32 315.43 2043.46 320.533 2042.09 325.745C2039.79 333.663 2037.97 339.922 2030.54 339.922L2030.55 339.946ZM2062.73 289.931C2051.89 289.931 2043.24 291.778 2036.22 295.578C2024.91 301.722 2019.6 315.817 2021 325.9C2021.7 330.958 2024.05 334.406 2027.43 335.346C2028.45 335.657 2029.51 335.831 2030.59 335.861V335.861C2034.09 335.861 2035.3 332.821 2037.64 324.756C2039.07 319.336 2041.01 314.028 2043.43 308.888C2049.93 295.757 2062.92 293.796 2070.03 293.796C2071.29 293.796 2072.39 293.862 2073.26 293.935L2074.39 290.405L2072.05 290.275C2069.42 290.119 2066.2 289.931 2062.73 289.931Z" fill="#231F20"/>
<path d="M2166.75 318.205C2166.61 307.344 2160.36 294.028 2148.09 287.694C2142.01 284.654 2135.23 282.701 2128.2 281.957C2125.78 276.544 2124.01 273.456 2124.01 273.456H2061.99C2061.99 273.456 2060.27 276.544 2057.81 281.957C2050.77 282.7 2044 284.653 2037.91 287.694C2025.65 294.028 2019.4 307.344 2019.24 318.205C2027.63 318.522 2035.65 321.135 2042.09 325.644C2043.77 320.635 2045.36 314.011 2048.81 306.739C2043.15 326.837 2039.39 353.54 2047.4 379.682H2079.1V351.47H2106.84V379.682H2138.54C2146.5 353.54 2142.79 326.837 2137.12 306.739C2140.59 314.011 2142.17 320.635 2143.85 325.644C2150.31 321.125 2158.35 318.511 2166.75 318.205V318.205Z" fill="#154579"/>
<path d="M2140.07 382.305H2103.72V354.093H2081.22V382.305H2044.86L2044.36 380.656C2038.87 362.611 2038.94 344.329 2041.13 328.626L2039.89 327.749C2033.92 323.6 2026.5 321.176 2018.75 320.836H2016.1V318.617C2016.26 307.555 2022.48 293.256 2036 286.273C2041.92 283.287 2048.49 281.3 2055.33 280.422C2057.47 275.737 2058.95 273.079 2059.02 272.956L2059.72 271.702H2125.13L2125.83 272.956C2125.9 273.079 2127.38 275.737 2129.52 280.422C2136.36 281.3 2142.93 283.287 2148.86 286.273C2162.4 293.291 2168.61 307.555 2168.75 318.617V320.845H2166.18C2158.43 321.186 2151.02 323.61 2145.05 327.758L2143.81 328.635C2146 344.338 2146.07 362.62 2140.58 380.665L2140.07 382.305ZM2108.96 377.919H2135.99C2143.4 351.9 2139.08 325.442 2134.07 307.678L2139.06 306.362C2141.29 311.246 2143.13 316.248 2144.57 321.336C2144.67 321.679 2144.78 322.012 2144.87 322.336C2150.43 319.205 2156.81 317.238 2163.47 316.599C2162.64 307.318 2157.1 295.651 2146.16 289.992C2140.39 287.113 2133.97 285.262 2127.31 284.553L2125.77 284.369L2125.23 283.15C2123.76 279.869 2122.54 277.439 2121.83 276.079H2063.15C2062.43 277.439 2061.22 279.869 2059.75 283.15L2059.21 284.369L2057.67 284.553C2051.01 285.262 2044.59 287.113 2038.82 289.992C2027.83 295.659 2022.31 307.318 2021.47 316.599C2028.14 317.236 2034.54 319.203 2040.11 322.336C2040.21 322.012 2040.31 321.679 2040.41 321.336C2041.85 316.247 2043.69 311.245 2045.92 306.362L2050.91 307.678C2045.89 325.442 2041.57 351.9 2048.99 377.919H2076.03V349.707H2109L2108.96 377.919Z" fill="#231F20"/>
<line x1="1913.31" y1="396.425" x2="1913.31" y2="3.42929" stroke="black" stroke-width="10"/>
<line x1="1887.3" y1="26.6685" x2="2104.35" y2="26.6685" stroke="black" stroke-width="10"/>
<line x1="2092.93" y1="1.07593" x2="2092.93" y2="121.093" stroke="black"/>
<path d="M2148.81 144.292H2036.05C2017.28 144.292 2002.06 158.17 2002.06 175.289V247.696C2002.06 264.815 2017.28 278.693 2036.05 278.693H2148.81C2167.58 278.693 2182.79 264.815 2182.79 247.696V175.289C2182.79 158.17 2167.58 144.292 2148.81 144.292Z" fill="#EBB787"/>
<path d="M2148.81 281.115H2036.05C2026.33 281.104 2017.02 277.58 2010.15 271.315C2003.28 265.05 1999.42 256.556 1999.41 247.696V175.289C1999.42 166.429 2003.28 157.935 2010.15 151.67C2017.02 145.405 2026.33 141.88 2036.05 141.87H2148.81C2158.52 141.88 2167.84 145.405 2174.7 151.67C2181.57 157.935 2185.44 166.429 2185.45 175.289V247.696C2185.44 256.556 2181.57 265.05 2174.7 271.315C2167.84 277.58 2158.52 281.104 2148.81 281.115V281.115ZM2036.05 146.713C2027.74 146.724 2019.78 149.738 2013.91 155.094C2008.03 160.451 2004.73 167.713 2004.72 175.289V247.696C2004.72 255.272 2008.03 262.536 2013.9 267.893C2019.78 273.251 2027.74 276.264 2036.05 276.271H2148.81C2157.11 276.264 2165.08 273.251 2170.95 267.893C2176.83 262.536 2180.13 255.272 2180.14 247.696V175.289C2180.13 167.713 2176.82 160.451 2170.95 155.094C2165.08 149.738 2157.11 146.724 2148.81 146.713H2036.05Z" fill="#231F20"/>
<path d="M2052.59 227.761C2059.93 227.761 2065.87 222.34 2065.87 215.653C2065.87 208.966 2059.93 203.545 2052.59 203.545C2045.26 203.545 2039.32 208.966 2039.32 215.653C2039.32 222.34 2045.26 227.761 2052.59 227.761Z" fill="#231F20"/>
<path d="M2132.25 227.761C2139.58 227.761 2145.53 222.34 2145.53 215.653C2145.53 208.966 2139.58 203.545 2132.25 203.545C2124.92 203.545 2118.97 208.966 2118.97 215.653C2118.97 222.34 2124.92 227.761 2132.25 227.761Z" fill="#231F20"/>
<path d="M2052.59 211.982C2052.6 212.63 2052.39 213.264 2051.99 213.804C2051.6 214.344 2051.04 214.765 2050.38 215.014C2049.73 215.263 2049 215.329 2048.31 215.203C2047.61 215.077 2046.97 214.765 2046.47 214.306C2045.96 213.848 2045.62 213.264 2045.48 212.628C2045.35 211.992 2045.42 211.333 2045.69 210.734C2045.96 210.135 2046.43 209.624 2047.02 209.265C2047.61 208.906 2048.3 208.715 2049.02 208.717C2049.96 208.717 2050.88 209.061 2051.55 209.673C2052.22 210.286 2052.59 211.116 2052.59 211.982V211.982Z" fill="white"/>
<path d="M2132.83 211.982C2132.84 212.63 2132.63 213.264 2132.23 213.803C2131.84 214.343 2131.28 214.764 2130.63 215.013C2129.97 215.263 2129.25 215.329 2128.55 215.204C2127.85 215.078 2127.21 214.767 2126.71 214.31C2126.21 213.852 2125.86 213.269 2125.72 212.634C2125.59 211.998 2125.66 211.34 2125.93 210.741C2126.2 210.142 2126.66 209.63 2127.25 209.27C2127.84 208.91 2128.53 208.717 2129.24 208.717C2130.19 208.717 2131.11 209.061 2131.78 209.673C2132.45 210.285 2132.83 211.115 2132.83 211.982Z" fill="white"/>
<path d="M2148.81 146.714H2036.05C2027.74 146.724 2019.78 149.738 2013.91 155.094C2008.03 160.451 2004.73 167.713 2004.72 175.289V229.534L2010.61 223.615L2010.72 222.879C2010.8 222.356 2019.45 169.981 2065.3 169.981C2074.27 170.151 2083.14 171.744 2091.52 174.688V174.688C2087.85 178.888 2085.92 184.139 2086.09 189.509C2086.09 202.421 2108.76 201.772 2108.4 189.509C2108.4 189.509 2094.59 200.803 2095.3 188.86C2095.76 181.198 2106.36 177.091 2113.58 173.361C2116.51 172.344 2121.42 170.252 2129.04 170.775C2143.65 173.274 2155.37 181.75 2163.97 196.076C2168.89 204.457 2172.3 213.498 2174.09 222.86L2174.2 223.596L2180.1 229.514V175.27C2180.08 167.704 2176.78 160.453 2170.92 155.101C2165.05 149.75 2157.1 146.734 2148.81 146.714Z" fill="#D69576"/>
<path d="M2121.76 122.42C2112.64 121.8 2105.07 121.451 2097.92 121.238C2094.39 121.141 2090.92 121.093 2087.64 121.093C2064.47 121.093 2045.97 123.446 2031.08 128.299C2010.9 134.867 1999.41 147.934 1999.41 164.14V227.558L2010.64 216.321L2010.75 215.585C2010.83 215.062 2019.48 162.687 2065.33 162.687C2074.3 162.857 2083.18 164.45 2091.55 167.394V167.394C2087.88 171.594 2085.96 176.845 2086.12 182.215C2086.12 195.127 2108.79 194.478 2108.43 182.215C2108.43 182.215 2094.62 193.509 2095.33 181.566C2095.79 173.904 2106.39 169.797 2113.61 166.067C2116.54 165.05 2121.45 162.958 2129.07 163.481C2143.68 165.98 2155.4 174.456 2164.01 188.782C2168.92 197.162 2172.33 206.204 2174.12 215.566L2174.23 216.302L2185.44 227.548V164.149C2185.45 139.691 2163.42 125.267 2121.76 122.42Z" fill="#231F20"/>
<path d="M2072.69 262.768C2074.18 260.959 2075.86 259.282 2077.7 257.76C2079.55 256.173 2081.54 254.716 2083.63 253.401C2084.2 253.033 2084.81 252.675 2085.44 252.326C2086.08 251.972 2086.74 251.649 2087.42 251.357C2087.75 251.193 2088.11 251.038 2088.48 250.883C2088.85 250.728 2089.2 250.583 2089.63 250.457L2090.94 250.089C2091.18 250.04 2091.48 250.011 2091.75 249.972L2092.18 249.924H2092.39H2092.61C2092.75 249.924 2092.34 249.924 2092.93 249.924C2093.3 249.924 2093.62 250.001 2093.99 250.069C2094.37 250.137 2095.06 250.311 2095.53 250.466C2096.01 250.621 2096.32 250.747 2096.72 250.902C2097.09 251.041 2097.44 251.2 2097.79 251.377C2098.46 251.667 2099.12 251.99 2099.76 252.345C2100.4 252.685 2101 253.043 2101.58 253.411C2103.67 254.728 2105.65 256.185 2107.5 257.77C2109.34 259.298 2111.01 260.978 2112.51 262.788C2112.51 262.788 2111.79 262.555 2110.61 262.09C2109.42 261.625 2107.72 260.947 2105.76 260.085L2099.19 257.121C2098.01 256.588 2096.79 256.055 2095.6 255.59C2095.31 255.466 2095.01 255.356 2094.71 255.261C2094.44 255.184 2094.09 255.038 2093.88 254.98C2093.7 254.938 2093.52 254.883 2093.35 254.816C2093.05 254.767 2092.65 254.738 2092.28 254.699H2092.35C2092.26 254.699 2092.2 254.699 2092.09 254.699L2091.32 254.903C2090.75 255.106 2090.17 255.251 2089.57 255.513C2088.38 255.978 2087.15 256.482 2085.98 257.043L2079.4 260.008C2077.45 260.879 2075.76 261.557 2074.56 262.022C2073.36 262.487 2072.69 262.768 2072.69 262.768Z" fill="#231F20"/>
<path d="M2072.69 262.768C2074.18 260.959 2075.86 259.282 2077.7 257.76C2079.55 256.173 2081.54 254.716 2083.63 253.401C2084.2 253.033 2084.81 252.675 2085.44 252.326C2086.08 251.972 2086.74 251.649 2087.42 251.357C2087.75 251.193 2088.11 251.038 2088.48 250.883C2088.85 250.728 2089.2 250.583 2089.63 250.457L2090.94 250.089C2091.18 250.04 2091.48 250.011 2091.75 249.972L2092.18 249.924H2092.39H2092.61C2092.75 249.924 2092.34 249.924 2092.93 249.924C2093.3 249.924 2093.62 250.001 2093.99 250.069C2094.37 250.137 2095.06 250.311 2095.53 250.466C2096.01 250.621 2096.32 250.747 2096.72 250.902C2097.09 251.041 2097.44 251.2 2097.79 251.377C2098.46 251.667 2099.12 251.99 2099.76 252.345C2100.4 252.685 2101 253.043 2101.58 253.411C2103.67 254.728 2105.65 256.185 2107.5 257.77C2109.34 259.298 2111.01 260.978 2112.51 262.788C2112.51 262.788 2111.79 262.555 2110.61 262.09C2109.42 261.625 2107.72 260.947 2105.76 260.085L2099.19 257.121C2098.01 256.588 2096.79 256.055 2095.6 255.59C2095.31 255.466 2095.01 255.356 2094.71 255.261C2094.44 255.184 2094.09 255.038 2093.88 254.98C2093.7 254.938 2093.52 254.883 2093.35 254.816C2093.05 254.767 2092.65 254.738 2092.28 254.699H2092.35C2092.26 254.699 2092.2 254.699 2092.09 254.699L2091.32 254.903C2090.75 255.106 2090.17 255.251 2089.57 255.513C2088.38 255.978 2087.15 256.482 2085.98 257.043L2079.4 260.008C2077.45 260.879 2075.76 261.557 2074.56 262.022C2073.36 262.487 2072.69 262.768 2072.69 262.768Z" fill="#231F20"/>
<path d="M2142.87 358.26C2142.99 365.289 2142.64 372.319 2141.83 379.279H2146.04C2147.16 379.279 2148.27 379.551 2149.31 380.079C2150.34 380.608 2151.29 381.383 2152.08 382.359C2152.87 383.336 2153.5 384.496 2153.93 385.771C2154.36 387.047 2154.58 388.414 2154.58 389.795C2154.58 392.58 2153.68 395.252 2152.08 397.222C2150.47 399.191 2148.3 400.298 2146.04 400.298H2105.75V371.401L2142.87 358.26Z" fill="#BE1E2D"/>
<path d="M2146.02 403.485H2103.16V368.992L2145.38 354.066L2145.47 358.17C2145.58 364.157 2145.34 370.146 2144.76 376.092H2146.03C2148.92 376.201 2151.67 377.691 2153.68 380.248C2155.7 382.805 2156.83 386.226 2156.83 389.788C2156.83 393.35 2155.7 396.772 2153.68 399.329C2151.67 401.885 2148.92 403.376 2146.03 403.485H2146.02ZM2108.34 397.111H2146.02C2147.55 397.032 2149.01 396.226 2150.07 394.862C2151.13 393.497 2151.73 391.679 2151.73 389.788C2151.73 387.897 2151.13 386.08 2150.07 384.715C2149.01 383.35 2147.55 382.544 2146.02 382.465H2138.84L2139.25 378.845C2139.86 373.42 2140.21 367.955 2140.29 362.479L2108.32 373.798L2108.34 397.111Z" fill="#231F20"/>
<path d="M2041.97 358.26C2041.85 365.289 2042.2 372.319 2043.01 379.279H2038.8C2037.68 379.279 2036.57 379.551 2035.54 380.079C2034.5 380.608 2033.56 381.383 2032.76 382.359C2031.97 383.336 2031.34 384.496 2030.91 385.771C2030.49 387.047 2030.27 388.414 2030.27 389.795V389.795C2030.27 392.58 2031.17 395.252 2032.77 397.222C2034.37 399.191 2036.54 400.298 2038.8 400.298H2079.07V371.401L2041.97 358.26Z" fill="#BE1E2D"/>
<path d="M2081.68 403.485H2038.83C2035.93 403.376 2033.19 401.885 2031.17 399.329C2029.16 396.772 2028.03 393.35 2028.03 389.788C2028.03 386.226 2029.16 382.805 2031.17 380.248C2033.19 377.691 2035.93 376.201 2038.83 376.092H2040.1C2039.52 370.146 2039.29 364.157 2039.4 358.17L2039.49 354.066L2081.69 368.992L2081.68 403.485ZM2038.83 382.465C2037.29 382.544 2035.84 383.35 2034.77 384.715C2033.71 386.08 2033.12 387.897 2033.12 389.788C2033.12 391.679 2033.71 393.497 2034.77 394.862C2035.84 396.226 2037.29 397.032 2038.83 397.111H2076.5V373.798L2044.53 362.479C2044.61 367.955 2044.96 373.42 2045.57 378.845L2045.98 382.465H2038.83Z" fill="#231F20"/>
<path d="M2457.24 277.19C2451.31 261.02 2438.64 266.398 2438.64 266.398L2388.6 265.543L2338.56 266.398C2338.56 266.398 2325.9 261.02 2319.97 277.19C2314.04 293.359 2301.77 360.349 2282.9 383.655C2282.9 383.655 2328.82 398.731 2388.64 398.731C2448.46 398.731 2494.37 383.655 2494.37 383.655C2475.44 360.349 2463.18 293.347 2457.24 277.19Z" fill="#9E1522"/>
<path d="M2389.01 402.409C2329.41 402.409 2282.82 387.332 2282.34 387.207L2278.02 385.799L2280.93 382.206C2294.23 365.785 2304.4 325.921 2311.12 299.55C2313.75 289.298 2315.81 281.194 2317.48 276.633C2321.88 264.736 2329.77 263.027 2334.08 263.027C2335.89 263.027 2337.68 263.315 2339.4 263.881L2389.01 263.027L2438.64 263.881C2440.35 263.318 2442.14 263.03 2443.93 263.027C2448.26 263.027 2456.13 264.798 2460.55 276.696C2462.22 281.257 2464.29 289.36 2466.9 299.612C2473.64 325.996 2483.8 365.848 2497.1 382.269L2500 385.862L2495.68 387.269C2495.19 387.408 2448.62 402.409 2389.01 402.409ZM2288.37 382.47C2354.3 400.679 2423.72 400.679 2489.65 382.47C2476.88 363.423 2467.4 326.285 2461.02 301.145C2458.58 291.471 2456.41 283.104 2454.85 278.857C2452.47 272.487 2448.81 269.309 2443.93 269.309C2442.68 269.309 2441.45 269.521 2440.27 269.937L2439.71 270.163H2439.05L2389.01 269.309L2338.4 270.176L2337.82 269.937C2336.64 269.517 2335.4 269.304 2334.15 269.309C2329.27 269.309 2325.61 272.55 2323.24 278.92C2321.68 283.166 2319.58 291.484 2317.08 301.208C2310.61 326.285 2301.13 363.423 2288.37 382.47Z" fill="#231F20"/>
<path d="M2408.98 284.162C2408.98 284.162 2426.6 280.507 2433.81 297.063C2441.02 313.619 2438.44 327.02 2449.72 323.443C2461 319.866 2458.56 291.628 2442.72 281.905C2429.04 273.502 2412.05 276.977 2406.89 276.727L2408.98 284.162Z" fill="#EBB787"/>
<path d="M2446.46 325.973C2440.18 325.973 2438.62 319.991 2436.7 312.424C2435.54 307.443 2433.97 302.566 2432 297.844C2427.43 287.34 2418.21 285.771 2413.13 285.771C2411.87 285.761 2410.61 285.863 2409.36 286.075L2407.58 286.442L2404.24 274.65L2406.97 274.775C2407.91 274.822 2409.39 274.72 2411.16 274.603C2413.4 274.455 2416.19 274.267 2419.3 274.267C2429.19 274.267 2437.19 276.227 2443.74 280.249C2455.05 287.192 2459.75 302.319 2458.44 313.049C2457.65 319.46 2454.68 323.935 2450.3 325.325C2449.06 325.737 2447.76 325.956 2446.46 325.973V325.973ZM2413.14 281.866C2419.19 281.866 2430.15 283.74 2435.61 296.29C2437.65 301.205 2439.29 306.277 2440.51 311.456C2442.97 321.093 2444 323.209 2449.13 321.608C2451.98 320.71 2453.96 317.414 2454.56 312.58C2455.75 302.943 2451.26 289.472 2441.7 283.6C2435.79 279.968 2428.46 278.203 2419.31 278.203C2416.34 278.203 2413.62 278.383 2411.47 278.531L2409.49 278.656L2410.44 282.03C2411.14 281.928 2412.07 281.866 2413.14 281.866V281.866Z" fill="#231F20"/>
<path d="M2373.03 281.933C2373.03 281.933 2354 278.28 2346.21 294.828C2338.42 311.377 2341.22 324.771 2329.03 321.196C2316.84 317.621 2319.48 289.395 2336.58 279.677C2351.37 271.278 2369.73 274.751 2375.29 274.502L2373.03 281.933Z" fill="#EBB787"/>
<path d="M2332.55 323.725C2331.13 323.7 2329.73 323.474 2328.39 323.054C2323.66 321.665 2320.46 317.192 2319.6 310.783C2318.18 300.081 2323.25 284.961 2335.47 277.999C2342.55 273.979 2351.18 272.019 2361.88 272.019C2365.22 272.019 2368.24 272.207 2370.66 272.355C2372.58 272.472 2374.17 272.573 2375.19 272.527L2378.13 272.402L2374.54 284.196L2372.6 283.822C2371.26 283.609 2369.9 283.507 2368.54 283.517C2363.05 283.517 2353.1 285.079 2348.16 295.585C2346.03 300.305 2344.33 305.18 2343.08 310.159C2340.99 317.723 2339.33 323.702 2332.54 323.702L2332.55 323.725ZM2361.91 275.946C2352.02 275.946 2344.13 277.71 2337.73 281.34C2327.4 287.21 2322.56 300.675 2323.84 310.307C2324.48 315.139 2326.62 318.433 2329.71 319.331C2330.63 319.628 2331.6 319.794 2332.59 319.822V319.822C2335.78 319.822 2336.89 316.919 2339.02 309.214C2340.33 304.036 2342.1 298.966 2344.31 294.055C2350.23 281.511 2362.09 279.638 2368.58 279.638C2369.73 279.638 2370.73 279.7 2371.52 279.771L2372.56 276.398L2370.42 276.273C2368.02 276.125 2365.08 275.946 2361.91 275.946Z" fill="#231F20"/>
<path d="M2456.83 302.955C2456.69 292.58 2450.99 279.859 2439.8 273.808C2434.25 270.904 2428.07 269.039 2421.65 268.327C2419.44 263.157 2417.83 260.207 2417.83 260.207H2361.24C2361.24 260.207 2359.67 263.157 2357.42 268.327C2351.01 269.037 2344.83 270.903 2339.27 273.808C2328.08 279.859 2322.38 292.58 2322.24 302.955C2329.89 303.258 2337.21 305.755 2343.08 310.062C2344.61 305.277 2346.06 298.949 2349.22 292.002C2344.05 311.202 2340.62 336.712 2347.93 361.685H2376.85V334.734H2402.16V361.685H2431.08C2438.35 336.712 2434.96 311.202 2429.79 292.002C2432.95 298.949 2434.39 305.277 2435.93 310.062C2441.82 305.745 2449.16 303.248 2456.83 302.955V302.955Z" fill="#154579"/>
<path d="M2432.48 364.191H2399.31V337.24H2378.78V364.191H2345.61L2345.16 362.616C2340.14 345.377 2340.21 327.912 2342.2 312.911L2341.08 312.073C2335.62 308.11 2328.86 305.794 2321.79 305.47H2319.37V303.349C2319.51 292.782 2325.19 279.121 2337.52 272.451C2342.93 269.598 2348.92 267.7 2355.16 266.861C2357.12 262.386 2358.46 259.846 2358.53 259.729L2359.17 258.531H2418.85L2419.49 259.729C2419.55 259.846 2420.91 262.386 2422.85 266.861C2429.09 267.7 2435.09 269.598 2440.5 272.451C2452.85 279.155 2458.52 292.782 2458.65 303.349V305.478H2456.3C2449.23 305.804 2442.47 308.12 2437.02 312.082L2435.89 312.92C2437.89 327.921 2437.96 345.385 2432.94 362.624L2432.48 364.191ZM2404.09 360.001H2428.76C2435.52 335.145 2431.58 309.869 2427.01 292.899L2431.56 291.642C2433.59 296.308 2435.27 301.087 2436.58 305.947C2436.68 306.274 2436.77 306.592 2436.86 306.903C2441.93 303.911 2447.75 302.032 2453.83 301.422C2453.07 292.555 2448.02 281.409 2438.03 276.004C2432.77 273.253 2426.92 271.485 2420.84 270.808L2419.43 270.632L2418.94 269.467C2417.6 266.333 2416.48 264.012 2415.84 262.713H2362.29C2361.65 264.012 2360.54 266.333 2359.2 269.467L2358.7 270.632L2357.3 270.808C2351.22 271.485 2345.37 273.253 2340.1 276.004C2330.07 281.418 2325.04 292.555 2324.27 301.422C2330.36 302.03 2336.19 303.909 2341.28 306.903C2341.36 306.592 2341.46 306.274 2341.55 305.947C2342.86 301.086 2344.54 296.306 2346.58 291.642L2351.13 292.899C2346.55 309.869 2342.61 335.145 2349.38 360.001H2374.05V333.049H2404.13L2404.09 360.001Z" fill="#231F20"/>
<line x1="2225.14" y1="377.68" x2="2225.14" y2="2.24823" stroke="black" stroke-width="10"/>
<line x1="2201.85" y1="24.2251" x2="2399.89" y2="24.2251" stroke="black" stroke-width="10"/>
<line x1="2389.51" x2="2389.51" y2="114.653" stroke="black"/>
<path d="M2440.45 136.815H2337.57C2320.44 136.815 2306.56 150.073 2306.56 166.427V235.598C2306.56 251.952 2320.44 265.21 2337.57 265.21H2440.45C2457.58 265.21 2471.46 251.952 2471.46 235.598V166.427C2471.46 150.073 2457.58 136.815 2440.45 136.815Z" fill="#EBB787"/>
<path d="M2440.45 267.523H2337.57C2328.71 267.513 2320.21 264.147 2313.94 258.162C2307.67 252.177 2304.15 244.062 2304.14 235.598V166.427C2304.15 157.963 2307.67 149.848 2313.94 143.863C2320.21 137.878 2328.71 134.512 2337.57 134.502H2440.45C2449.32 134.512 2457.81 137.878 2464.08 143.863C2470.35 149.848 2473.87 157.963 2473.88 166.427V235.598C2473.87 244.062 2470.35 252.177 2464.08 258.162C2457.81 264.147 2449.32 267.513 2440.45 267.523V267.523ZM2337.57 139.129C2329.99 139.139 2322.73 142.018 2317.37 147.135C2312.01 152.252 2308.99 159.19 2308.98 166.427V235.598C2308.99 242.836 2312 249.775 2317.36 254.893C2322.72 260.011 2329.99 262.889 2337.57 262.896H2440.45C2448.03 262.889 2455.3 260.011 2460.66 254.893C2466.02 249.775 2469.03 242.836 2469.04 235.598V166.427C2469.03 159.19 2466.01 152.252 2460.66 147.135C2455.3 142.018 2448.03 139.139 2440.45 139.129H2337.57Z" fill="#231F20"/>
<path d="M2352.67 216.554C2359.36 216.554 2364.78 211.375 2364.78 204.987C2364.78 198.599 2359.36 193.42 2352.67 193.42C2345.98 193.42 2340.55 198.599 2340.55 204.987C2340.55 211.375 2345.98 216.554 2352.67 216.554Z" fill="#231F20"/>
<path d="M2425.35 216.554C2432.04 216.554 2437.46 211.375 2437.46 204.987C2437.46 198.599 2432.04 193.42 2425.35 193.42C2418.66 193.42 2413.23 198.599 2413.23 204.987C2413.23 211.375 2418.66 216.554 2425.35 216.554Z" fill="#231F20"/>
<path d="M2352.67 201.48C2352.67 202.099 2352.48 202.705 2352.12 203.221C2351.76 203.737 2351.25 204.139 2350.65 204.377C2350.05 204.615 2349.39 204.678 2348.76 204.557C2348.12 204.437 2347.53 204.139 2347.08 203.701C2346.62 203.263 2346.3 202.705 2346.18 202.097C2346.05 201.489 2346.12 200.86 2346.37 200.288C2346.62 199.716 2347.04 199.228 2347.58 198.885C2348.12 198.542 2348.75 198.36 2349.4 198.361C2350.27 198.361 2351.1 198.69 2351.71 199.275C2352.32 199.86 2352.67 200.653 2352.67 201.48V201.48Z" fill="white"/>
<path d="M2425.88 201.48C2425.88 202.099 2425.69 202.704 2425.33 203.22C2424.97 203.736 2424.46 204.138 2423.86 204.376C2423.26 204.614 2422.61 204.677 2421.97 204.558C2421.33 204.438 2420.75 204.141 2420.29 203.704C2419.83 203.267 2419.52 202.71 2419.39 202.103C2419.26 201.496 2419.33 200.866 2419.58 200.294C2419.82 199.722 2420.24 199.233 2420.78 198.889C2421.32 198.545 2421.95 198.361 2422.6 198.361C2423.47 198.361 2424.3 198.69 2424.92 199.274C2425.53 199.859 2425.88 200.652 2425.88 201.48Z" fill="white"/>
<path d="M2440.45 139.129H2337.57C2329.99 139.138 2322.73 142.018 2317.37 147.135C2312.01 152.252 2308.99 159.19 2308.98 166.427V218.247L2314.36 212.593L2314.46 211.89C2314.54 211.39 2322.42 161.356 2364.26 161.356C2372.44 161.518 2380.54 163.04 2388.18 165.853V165.853C2384.83 169.865 2383.08 174.881 2383.23 180.011C2383.23 192.346 2403.91 191.726 2403.58 180.011C2403.58 180.011 2390.98 190.801 2391.63 179.391C2392.05 172.072 2401.72 168.148 2408.31 164.585C2410.98 163.614 2415.46 161.615 2422.42 162.115C2435.74 164.502 2446.44 172.599 2454.29 186.285C2458.77 194.291 2461.89 202.928 2463.52 211.872L2463.62 212.575L2469 218.229V166.408C2468.99 159.181 2465.97 152.254 2460.62 147.141C2455.27 142.029 2448.02 139.148 2440.45 139.129Z" fill="#D69576"/>
<path d="M2415.77 115.921C2407.46 115.328 2400.55 114.995 2394.03 114.792C2390.8 114.699 2387.64 114.653 2384.65 114.653C2363.5 114.653 2346.62 116.901 2333.03 121.538C2314.62 127.812 2304.14 140.295 2304.14 155.776V216.36L2314.39 205.625L2314.49 204.922C2314.56 204.422 2322.45 154.388 2364.29 154.388C2372.47 154.55 2380.57 156.072 2388.21 158.885V158.885C2384.86 162.897 2383.11 167.913 2383.26 173.043C2383.26 185.378 2403.94 184.758 2403.61 173.043C2403.61 173.043 2391.01 183.833 2391.66 172.423C2392.08 165.104 2401.75 161.18 2408.34 157.618C2411.01 156.646 2415.49 154.647 2422.45 155.147C2435.77 157.534 2446.47 165.631 2454.32 179.317C2458.8 187.323 2461.92 195.96 2463.55 204.904L2463.65 205.607L2473.88 216.35V155.785C2473.88 132.42 2453.79 118.641 2415.77 115.921Z" fill="#231F20"/>
<path d="M2371 249.997C2372.37 248.268 2373.9 246.666 2375.58 245.213C2377.27 243.696 2379.07 242.304 2380.98 241.048C2381.51 240.697 2382.06 240.354 2382.64 240.021C2383.22 239.683 2383.83 239.375 2384.44 239.096C2384.74 238.939 2385.07 238.791 2385.41 238.642C2385.75 238.494 2386.07 238.356 2386.46 238.235L2387.65 237.884C2387.87 237.837 2388.14 237.81 2388.4 237.773L2388.78 237.726H2388.98H2389.18C2389.31 237.726 2388.93 237.726 2389.47 237.726C2389.81 237.726 2390.1 237.8 2390.44 237.865C2390.78 237.93 2391.41 238.096 2391.85 238.245C2392.28 238.393 2392.56 238.513 2392.93 238.661C2393.26 238.794 2393.59 238.945 2393.9 239.114C2394.52 239.391 2395.12 239.7 2395.7 240.04C2396.28 240.364 2396.84 240.706 2397.36 241.058C2399.27 242.316 2401.07 243.708 2402.77 245.222C2404.44 246.681 2405.97 248.286 2407.33 250.015C2407.33 250.015 2406.68 249.793 2405.6 249.349C2404.51 248.905 2402.96 248.257 2401.18 247.433L2395.18 244.602C2394.1 244.093 2392.99 243.584 2391.9 243.14C2391.64 243.021 2391.37 242.916 2391.09 242.825C2390.85 242.751 2390.53 242.612 2390.33 242.557C2390.17 242.517 2390.01 242.464 2389.85 242.399C2389.58 242.353 2389.21 242.325 2388.88 242.288H2388.94C2388.86 242.288 2388.8 242.288 2388.71 242.288L2388 242.483C2387.48 242.677 2386.95 242.816 2386.4 243.066C2385.31 243.51 2384.2 243.991 2383.12 244.528L2377.13 247.359C2375.34 248.192 2373.8 248.84 2372.71 249.284C2371.61 249.728 2371 249.997 2371 249.997Z" fill="#231F20"/>
<path d="M2371 249.997C2372.37 248.268 2373.9 246.666 2375.58 245.212C2377.27 243.696 2379.07 242.304 2380.98 241.048C2381.51 240.697 2382.06 240.354 2382.64 240.021C2383.22 239.683 2383.83 239.374 2384.44 239.096C2384.74 238.939 2385.07 238.79 2385.41 238.642C2385.75 238.494 2386.07 238.356 2386.46 238.235L2387.65 237.884C2387.87 237.837 2388.14 237.81 2388.4 237.773L2388.78 237.726H2388.98H2389.18C2389.31 237.726 2388.93 237.726 2389.47 237.726C2389.81 237.726 2390.1 237.8 2390.44 237.865C2390.78 237.93 2391.41 238.096 2391.85 238.244C2392.28 238.393 2392.56 238.513 2392.93 238.661C2393.26 238.794 2393.59 238.945 2393.9 239.114C2394.52 239.391 2395.12 239.7 2395.7 240.04C2396.28 240.364 2396.84 240.706 2397.36 241.058C2399.27 242.316 2401.07 243.708 2402.77 245.222C2404.44 246.681 2405.97 248.286 2407.33 250.015C2407.33 250.015 2406.68 249.793 2405.6 249.349C2404.51 248.905 2402.96 248.257 2401.18 247.433L2395.18 244.602C2394.1 244.093 2392.99 243.584 2391.9 243.14C2391.64 243.021 2391.37 242.916 2391.09 242.825C2390.85 242.751 2390.53 242.612 2390.33 242.557C2390.17 242.517 2390.01 242.464 2389.85 242.399C2389.58 242.353 2389.21 242.325 2388.88 242.288H2388.94C2388.86 242.288 2388.8 242.288 2388.71 242.288L2388 242.483C2387.48 242.677 2386.95 242.816 2386.4 243.066C2385.31 243.51 2384.2 243.991 2383.12 244.528L2377.13 247.359C2375.34 248.192 2373.8 248.84 2372.71 249.284C2371.61 249.728 2371 249.997 2371 249.997Z" fill="#231F20"/>
<path d="M2435.03 341.22C2435.14 347.935 2434.83 354.651 2434.09 361.3H2437.93C2438.95 361.3 2439.96 361.56 2440.91 362.065C2441.86 362.57 2442.71 363.31 2443.44 364.243C2444.16 365.176 2444.74 366.283 2445.13 367.502C2445.52 368.721 2445.72 370.027 2445.72 371.346C2445.72 374.007 2444.9 376.559 2443.43 378.441C2441.97 380.322 2439.99 381.379 2437.93 381.379H2401.17V353.774L2435.03 341.22Z" fill="#BE1E2D"/>
<path d="M2437.91 384.424H2398.8V351.473L2437.32 337.214L2437.41 341.135C2437.51 346.854 2437.29 352.576 2436.76 358.256H2437.92C2440.56 358.359 2443.06 359.783 2444.9 362.226C2446.74 364.668 2447.77 367.937 2447.77 371.34C2447.77 374.742 2446.74 378.011 2444.9 380.454C2443.06 382.896 2440.56 384.32 2437.92 384.424H2437.91ZM2403.53 378.335H2437.91C2439.31 378.26 2440.63 377.49 2441.6 376.186C2442.57 374.883 2443.12 373.146 2443.12 371.34C2443.12 369.533 2442.57 367.797 2441.6 366.493C2440.63 365.189 2439.31 364.419 2437.91 364.344H2431.36L2431.73 360.886C2432.29 355.703 2432.61 350.482 2432.68 345.251L2403.51 356.064L2403.53 378.335Z" fill="#231F20"/>
<path d="M2342.98 341.22C2342.87 347.935 2343.18 354.651 2343.92 361.3H2340.08C2339.06 361.3 2338.05 361.56 2337.1 362.065C2336.16 362.57 2335.3 363.31 2334.57 364.243C2333.85 365.176 2333.28 366.283 2332.89 367.502C2332.5 368.721 2332.29 370.027 2332.3 371.346V371.346C2332.3 374.007 2333.12 376.559 2334.58 378.441C2336.04 380.322 2338.02 381.379 2340.08 381.379H2376.83V353.774L2342.98 341.22Z" fill="#BE1E2D"/>
<path d="M2379.21 384.424H2340.1C2337.46 384.32 2334.96 382.896 2333.12 380.454C2331.28 378.011 2330.25 374.742 2330.25 371.34C2330.25 367.937 2331.28 364.668 2333.12 362.226C2334.96 359.783 2337.46 358.359 2340.1 358.256H2341.27C2340.74 352.575 2340.53 346.854 2340.62 341.135L2340.71 337.214L2379.22 351.473L2379.21 384.424ZM2340.1 364.344C2338.7 364.419 2337.38 365.189 2336.41 366.493C2335.44 367.797 2334.9 369.533 2334.9 371.34C2334.9 373.146 2335.44 374.883 2336.41 376.186C2337.38 377.49 2338.7 378.26 2340.1 378.335H2374.48V356.064L2345.31 345.251C2345.38 350.482 2345.7 355.703 2346.26 360.886L2346.64 364.344H2340.1Z" fill="#231F20"/>
</svg>
