<svg width="64" height="64" viewBox="0 0 64 64" fill="none" xmlns="http://www.w3.org/2000/svg">
<g clip-path="url(#clip0_2_15)">
<path d="M39.681 16.442C39.7585 16.7283 39.8917 16.9965 40.073 17.2313C40.2542 17.4661 40.48 17.6629 40.7374 17.8104C40.9947 17.9578 41.2786 18.0532 41.5728 18.0908C41.867 18.1285 42.1658 18.1078 42.452 18.03L50.04 15.973C50.3261 15.8958 50.5942 15.7629 50.8289 15.5821C51.0637 15.4012 51.2604 15.1758 51.408 14.9188C51.5556 14.6619 51.6511 14.3783 51.689 14.0844C51.7269 13.7905 51.7065 13.492 51.629 13.206L50.252 8.11399C50.0952 7.5356 49.7151 7.04318 49.1952 6.74501C48.6754 6.44684 48.0584 6.36734 47.48 6.52399L39.892 8.58099C39.3143 8.7385 38.8227 9.11864 38.5248 9.63807C38.2269 10.1575 38.1472 10.7738 38.303 11.352L39.681 16.442Z" fill="#405866"/>
<path d="M24.412 16.581C24.2543 17.158 23.8743 17.6489 23.3552 17.9462C22.8362 18.2435 22.2205 18.3229 21.643 18.167L14.056 16.11C13.7697 16.033 13.5014 15.9003 13.2665 15.7195C13.0315 15.5388 12.8345 15.3134 12.6867 15.0564C12.539 14.7994 12.4433 14.5158 12.4053 14.2218C12.3672 13.9278 12.3875 13.6292 12.465 13.343L13.843 8.252C14 7.67383 14.3803 7.18172 14.9001 6.88392C15.42 6.58611 16.0368 6.507 16.615 6.664L24.201 8.721C24.4873 8.79833 24.7556 8.93129 24.9905 9.11231C25.2254 9.29332 25.4223 9.51883 25.57 9.77596C25.7178 10.0331 25.8134 10.3168 25.8515 10.6109C25.8896 10.905 25.8694 11.2037 25.792 11.49L24.412 16.581Z" fill="#405866"/>
<path d="M30.442 10.674C30.993 12.166 31.671 14.144 32.042 16.21C32.436 18.438 31.605 19.664 30.042 21.034C29.584 21.431 29.428 22.018 29.63 22.569C29.843 23.132 30.394 23.526 30.972 23.526C31.305 23.526 31.624 23.402 31.895 23.164C33.228 22.003 34.224 20.919 34.75 19.395C35.376 17.594 34.865 15.492 34.487 13.957C34.065 12.245 33.451 10.57 32.853 8.947L32.687 8.502C31.797 6.084 31.585 4.263 33.108 2.102C33.417 1.657 33.462 1.14 33.227 0.681003C32.769 -0.199997 31.376 -0.353997 30.774 0.502003C29.904 1.734 29.02 3.283 29.055 5.409C29.087 7.062 29.67 8.609 30.234 10.107L30.447 10.672" fill="#354A54"/>
<path d="M30.743 22.621C30.538 22.073 30.696 21.485 31.152 21.087C32.718 19.719 33.55 18.491 33.152 16.265C32.785 14.199 32.105 12.225 31.555 10.729L31.342 10.162C30.782 8.66499 30.196 7.11799 30.166 5.46499C30.128 3.33499 31.012 1.78899 31.884 0.557994C32.022 0.356994 32.206 0.215994 32.407 0.120994C31.809 -0.141006 31.037 -0.026006 30.628 0.557994C29.757 1.78799 28.877 3.33499 28.909 5.46499C28.943 7.11799 29.521 8.66499 30.088 10.162L30.297 10.729C30.852 12.221 31.531 14.199 31.899 16.265C32.293 18.491 31.462 19.719 29.899 21.087C29.439 21.485 29.283 22.073 29.49 22.621C29.698 23.186 30.249 23.581 30.826 23.581C31.042 23.581 31.253 23.52 31.452 23.417C31.1247 23.2491 30.8716 22.9653 30.742 22.621" fill="#405866"/>
<path d="M5.976 16.481C14.36 2.70101 26.996 12.287 26.996 12.287C27.815 12.905 29.326 13.415 30.349 13.419L33.737 13.421C34.764 13.421 36.276 12.913 37.093 12.291C37.093 12.291 49.728 2.70701 58.113 16.483C66.504 30.258 63.123 45.259 63.123 45.259C62.528 48.933 60.578 51.384 56.895 51.073C53.223 50.766 45.254 41.185 45.254 41.185C44.598 40.394 43.219 39.748 42.19 39.748L21.904 39.743C20.881 39.743 19.503 40.389 18.845 41.176C18.845 41.176 10.87 50.766 7.198 51.072C3.516 51.38 1.563 48.924 0.976005 45.254C0.976005 45.256 -2.409 30.255 5.976 16.481" fill="#354A54"/>
<path d="M10.472 45.2C10.472 45.2 7.087 30.2 15.471 16.426C17.569 12.98 19.932 10.994 22.298 9.95501C17.856 8.40601 11.058 8.00601 5.882 16.51C-2.499 30.289 0.881998 45.286 0.881998 45.286C1.471 48.96 3.427 51.412 7.104 51.101C8.292 51.006 9.929 49.932 11.601 48.533C11.049 47.613 10.677 46.483 10.473 45.2" fill="#405866"/>
<path d="M39.847 13.359H43.233C44.257 13.363 45.768 12.853 46.586 12.234C46.586 12.234 48.337 10.907 50.967 9.94903C43.957 7.04603 36.999 12.321 36.999 12.321C36.94 12.364 36.88 12.408 36.816 12.449C37.669 12.966 38.944 13.358 39.846 13.358" fill="#405866"/>
<path d="M54.745 41.13C54.092 40.339 52.713 39.692 51.686 39.692L31.4 39.69C31.16 39.6941 30.9213 39.7246 30.688 39.781H42.098C43.123 39.781 44.505 40.427 45.159 41.218C45.159 41.218 53.13 50.803 56.802 51.11C59.253 51.315 60.935 50.296 61.962 48.507C58.444 45.574 54.745 41.13 54.745 41.13Z" fill="#405866"/>
<path d="M23.758 23.469C23.7344 23.1656 23.7247 22.8613 23.729 22.557C23.7274 22.5073 23.7395 22.4582 23.764 22.415C23.6526 22.1971 23.5124 21.9953 23.347 21.815C23.3116 21.7798 23.2857 21.7362 23.2719 21.6882C23.2581 21.6403 23.2568 21.5896 23.268 21.541H19.06V17.308H14.514V21.541H10.863V26.157H14.514V29.582H19.06V26.157H23.51C23.536 25.318 23.74 24.479 23.841 23.643C23.7927 23.5973 23.7631 23.5353 23.758 23.469Z" fill="#A2ABAF"/>
<path d="M19.08 17.194C19.08 16.541 18.552 16.011 17.901 16.011H15.7C15.049 16.011 14.517 16.541 14.517 17.194C14.517 17.845 15.048 18.375 15.7 18.375H17.901C18.056 18.3749 18.2094 18.3442 18.3525 18.2848C18.4956 18.2254 18.6256 18.1383 18.7351 18.0287C18.8446 17.919 18.9314 17.7888 18.9906 17.6456C19.0497 17.5024 19.0801 17.3489 19.08 17.194Z" fill="#A2ABAF"/>
<path d="M10.863 26.09V21.545H14.479V18.28H19.095V21.545H23.33V26.09H19.095V29.586H14.479V26.09H10.863Z" fill="#A2ABAF"/>
<path d="M23.445 26.1C24.097 26.1 24.626 25.571 24.626 24.918V22.719C24.6135 22.4142 24.4836 22.126 24.2634 21.9148C24.0433 21.7036 23.7501 21.5856 23.445 21.5856C23.1399 21.5856 22.8467 21.7036 22.6266 21.9148C22.4065 22.126 22.2766 22.4142 22.264 22.719V24.918C22.2637 25.0732 22.2941 25.2269 22.3534 25.3704C22.4126 25.5139 22.4996 25.6442 22.6093 25.754C22.719 25.8638 22.8493 25.9509 22.9927 26.0103C23.1361 26.0696 23.2898 26.1001 23.445 26.1Z" fill="#A2ABAF"/>
<path d="M9.814 24.23C9.845 24.535 9.845 24.836 9.845 25.141C9.84648 25.1901 9.83399 25.2387 9.809 25.281C9.917 25.492 10.054 25.694 10.223 25.883C10.302 25.969 10.327 26.068 10.304 26.155H14.511V30.389H19.06V26.155H22.709V21.54H19.06V18.118H14.511V21.54H10.061C10.038 22.38 9.833 23.218 9.733 24.053C9.7803 24.1004 9.80904 24.1632 9.814 24.23Z" fill="#A2ABAF"/>
<path d="M14.493 30.503C14.493 31.156 15.025 31.687 15.681 31.687H17.877C18.529 31.687 19.06 31.156 19.06 30.503C19.06 29.854 18.529 29.321 17.877 29.321H15.681C15.025 29.321 14.493 29.854 14.493 30.503Z" fill="#A2ABAF"/>
<path d="M22.709 21.609V26.154H19.093V29.421H14.475V26.154H10.242V21.609H14.475V18.118H19.093V21.609H22.709Z" fill="#A2ABAF"/>
<path d="M10.128 21.595C9.97295 21.595 9.81943 21.6255 9.6762 21.6849C9.53297 21.7443 9.40285 21.8313 9.29326 21.9409C9.18367 22.0506 9.09677 22.1808 9.03753 22.3241C8.97829 22.4674 8.94787 22.6209 8.948 22.776V24.974C8.948 25.2872 9.07243 25.5876 9.29391 25.8091C9.51539 26.0305 9.81578 26.155 10.129 26.155C10.4422 26.155 10.7426 26.0305 10.9641 25.8091C11.1856 25.5876 11.31 25.2872 11.31 24.974V22.776C11.3101 22.6208 11.2796 22.467 11.2203 22.3236C11.1609 22.1802 11.0738 22.0499 10.964 21.9402C10.8542 21.8305 10.7239 21.7436 10.5804 21.6843C10.437 21.6251 10.2832 21.5947 10.128 21.595Z" fill="#A2ABAF"/>
<path d="M23.2 23.06C23.1738 22.7571 23.1621 22.4531 23.165 22.149C23.165 22.094 23.181 22.048 23.2 22.009C23.0897 21.791 22.9501 21.5891 22.785 21.409C22.7509 21.3732 22.7259 21.3297 22.7121 21.2822C22.6984 21.2347 22.6963 21.1845 22.706 21.136H18.503V16.903H13.957V21.136H10.301V25.754H13.957V29.174H18.503V25.754H22.949C22.975 24.911 23.181 24.072 23.28 23.237C23.2324 23.1899 23.2039 23.1269 23.2 23.06Z" fill="#CBD5DC"/>
<path d="M18.513 16.789C18.513 16.138 17.983 15.608 17.332 15.608H15.132C14.977 15.6081 14.8236 15.6388 14.6805 15.6982C14.5374 15.7576 14.4074 15.8447 14.2979 15.9543C14.1884 16.064 14.1016 16.1941 14.0424 16.3374C13.9833 16.4806 13.9529 16.634 13.953 16.789C13.9527 16.944 13.983 17.0976 14.0422 17.241C14.1013 17.3843 14.1881 17.5146 14.2976 17.6243C14.4071 17.7341 14.5371 17.8212 14.6803 17.8807C14.8235 17.9402 14.977 17.9709 15.132 17.971H17.332C17.983 17.971 18.513 17.442 18.513 16.789Z" fill="#CBD5DC"/>
<path d="M10.297 25.686V21.139H13.916V17.876H18.531V21.139H22.766V25.686H18.531V29.177H13.916V25.686H10.297Z" fill="#CBD5DC"/>
<path d="M22.878 25.701C23.536 25.701 24.063 25.17 24.063 24.517V22.319C24.0631 22.1635 24.0325 22.0096 23.973 21.866C23.9134 21.7224 23.8261 21.592 23.716 21.4822C23.6058 21.3725 23.4751 21.2856 23.3313 21.2265C23.1875 21.1674 23.0335 21.1374 22.878 21.138C22.229 21.138 21.697 21.665 21.697 22.319V24.517C21.697 25.17 22.229 25.701 22.878 25.701Z" fill="#CBD5DC"/>
<path d="M9.252 23.826C9.278 24.129 9.28 24.435 9.28 24.736C9.2795 24.7855 9.26931 24.8344 9.25 24.88C9.355 25.091 9.49 25.29 9.659 25.479C9.739 25.565 9.762 25.664 9.74 25.753H13.947V29.984H18.493V25.753H22.144V21.137H18.493V17.713H13.947V21.137H9.502C9.477 21.977 9.267 22.816 9.172 23.65C9.21755 23.6981 9.24571 23.7601 9.252 23.826Z" fill="#CBD5DC"/>
<path d="M13.934 30.1C13.9332 30.2556 13.9632 30.4097 14.0222 30.5536C14.0812 30.6976 14.1681 30.8284 14.2778 30.9386C14.3876 31.0488 14.5181 31.1363 14.6617 31.1959C14.8054 31.2555 14.9595 31.2861 15.115 31.286H17.313C17.6204 31.2771 17.9122 31.1487 18.1265 30.9281C18.3408 30.7075 18.4606 30.412 18.4606 30.1045C18.4606 29.797 18.3408 29.5015 18.1265 29.2809C17.9122 29.0603 17.6204 28.9319 17.313 28.923H15.115C14.461 28.923 13.934 29.45 13.934 30.1Z" fill="#CBD5DC"/>
<path d="M22.14 21.2V25.747H18.527V29.01H13.909V25.747H9.67801V21.2H13.909V17.707H18.527V21.2H22.14Z" fill="#CBD5DC"/>
<path d="M9.564 21.19C8.913 21.19 8.38 21.719 8.38 22.375V24.571C8.38895 24.8787 8.51746 25.1707 8.73825 25.3852C8.95903 25.5996 9.25471 25.7196 9.5625 25.7196C9.8703 25.7196 10.166 25.5996 10.3868 25.3852C10.6075 25.1707 10.7361 24.8787 10.745 24.571V22.375C10.745 21.72 10.217 21.19 9.564 21.19Z" fill="#CBD5DC"/>
<path d="M54.58 18.09C54.58 18.8163 54.2915 19.5128 53.7779 20.0264C53.2643 20.54 52.5678 20.8285 51.8415 20.8285C51.1152 20.8285 50.4187 20.54 49.9051 20.0264C49.3915 19.5128 49.103 18.8163 49.103 18.09C49.1035 17.3635 49.3924 16.6669 49.9061 16.1531C50.4198 15.6394 51.1165 15.3505 51.843 15.35C52.2027 15.35 52.5588 15.4209 52.8911 15.5586C53.2234 15.6964 53.5252 15.8982 53.7794 16.1527C54.0336 16.4072 54.2351 16.7093 54.3725 17.0417C54.5099 17.3741 54.5804 17.7303 54.58 18.09Z" fill="#FAAA33"/>
<path d="M44.38 22.951C45.8938 22.951 47.121 21.7238 47.121 20.21C47.121 18.6962 45.8938 17.469 44.38 17.469C42.8662 17.469 41.639 18.6962 41.639 20.21C41.639 21.7238 42.8662 22.951 44.38 22.951Z" fill="#FAAA33"/>
<path d="M57.32 25.318C57.319 26.0452 57.0293 26.7423 56.5145 27.2561C55.9998 27.7698 55.3023 28.0583 54.575 28.058C53.8575 28.0443 53.174 27.7497 52.6715 27.2374C52.1689 26.7251 51.8874 26.0361 51.8874 25.3185C51.8874 24.6009 52.1689 23.9119 52.6715 23.3996C53.174 22.8874 53.8575 22.5927 54.575 22.579C54.9351 22.5786 55.2917 22.6492 55.6246 22.7866C55.9574 22.924 56.2599 23.1257 56.5148 23.38C56.7697 23.6343 56.972 23.9364 57.1101 24.2689C57.2483 24.6014 57.3196 24.9579 57.32 25.318Z" fill="#FAAA33"/>
<path d="M49.856 27.434C49.8367 28.1476 49.5397 28.8255 49.0281 29.3234C48.5166 29.8214 47.8309 30.1 47.117 30.1C46.4031 30.1 45.7174 29.8214 45.2059 29.3234C44.6943 28.8255 44.3973 28.1476 44.378 27.434C44.3776 27.0739 44.4481 26.7173 44.5856 26.3844C44.723 26.0516 44.9246 25.7491 45.179 25.4942C45.4333 25.2393 45.7354 25.037 46.0679 24.8989C46.4004 24.7607 46.7569 24.6894 47.117 24.689C47.4771 24.6894 47.8336 24.7607 48.1661 24.8989C48.4986 25.037 48.8007 25.2393 49.055 25.4942C49.3093 25.7491 49.511 26.0516 49.6484 26.3844C49.7859 26.7173 49.8564 27.0739 49.856 27.434Z" fill="#FAAA33"/>
</g>
<defs>
<clipPath id="clip0_2_15">
<rect width="64" height="64" fill="white"/>
</clipPath>
</defs>
</svg>
