<svg width="182" height="273" viewBox="0 0 182 273" fill="none" xmlns="http://www.w3.org/2000/svg">
<path d="M147.27 166.72C142.41 153.85 132.03 158.13 132.03 158.13L91.03 157.45L50.03 158.13C50.03 158.13 39.66 153.85 34.8 166.72C29.94 179.59 19.89 232.91 4.42999 251.46C4.42999 251.46 42.05 263.46 91.06 263.46C140.07 263.46 177.69 251.46 177.69 251.46C162.18 232.91 152.13 179.58 147.27 166.72Z" fill="#9E1522"/>
<path d="M91 265.94C42.17 265.94 4 253.94 3.61 253.84L0.0700073 252.72L2.45 249.86C13.35 236.79 21.68 205.06 27.19 184.07C29.34 175.91 31.03 169.46 32.4 165.83C36 156.36 42.47 155 46 155C47.4797 155 48.9505 155.23 50.36 155.68L91 155L131.67 155.68C133.07 155.232 134.53 155.002 136 155C139.55 155 146 156.41 149.62 165.88C150.99 169.51 152.68 175.96 154.82 184.12C160.34 205.12 168.67 236.84 179.56 249.91L181.94 252.77L178.4 253.89C178 254 139.84 265.94 91 265.94ZM8.55 250.07C62.5647 264.563 119.445 264.563 173.46 250.07C163 234.91 155.23 205.35 150 185.34C148 177.64 146.23 170.98 144.95 167.6C143 162.53 140 160 136 160C134.979 160 133.966 160.169 133 160.5L132.54 160.68H132L91 160L49.54 160.69L49.06 160.5C48.0953 160.166 47.081 159.997 46.06 160C42.06 160 39.06 162.58 37.12 167.65C35.84 171.03 34.12 177.65 32.07 185.39C26.77 205.35 19 234.91 8.55 250.07Z" fill="#231F20"/>
<path d="M81.13 168.3C81.13 168.3 58.66 163.62 49.46 184.82C40.26 206.02 43.56 223.18 29.17 218.6C14.78 214.02 17.89 177.86 38.09 165.41C55.55 154.65 77.23 159.1 83.8 158.78L81.13 168.3Z" fill="#EBB787"/>
<path d="M33.33 221.84C31.6555 221.808 29.996 221.518 28.41 220.98C22.83 219.2 19.05 213.47 18.04 205.26C16.36 191.55 22.35 172.18 36.78 163.26C45.13 158.11 55.33 155.6 67.96 155.6C71.91 155.6 75.47 155.84 78.33 156.03C80.6 156.18 82.47 156.31 83.68 156.25L87.15 156.09L82.91 171.2L80.62 170.72C79.0382 170.447 77.4351 170.316 75.83 170.33C69.34 170.33 57.59 172.33 51.76 185.79C49.2464 191.836 47.2395 198.081 45.76 204.46C43.29 214.15 41.33 221.81 33.32 221.81L33.33 221.84ZM68 160.63C56.32 160.63 47 162.89 39.44 167.54C27.25 175.06 21.53 192.31 23.04 204.65C23.8 210.84 26.33 215.06 29.97 216.21C31.0649 216.591 32.2113 216.803 33.37 216.84C37.14 216.84 38.45 213.12 40.97 203.25C42.5124 196.616 44.5994 190.121 47.21 183.83C54.21 167.76 68.21 165.36 75.87 165.36C77.23 165.36 78.41 165.44 79.35 165.53L80.57 161.21L78.04 161.05C75.21 160.86 71.74 160.63 68 160.63Z" fill="#231F20"/>
<path d="M100.55 168.3C100.55 168.3 123.03 163.62 132.22 184.82C141.41 206.02 138.12 223.18 152.51 218.6C166.9 214.02 163.79 177.86 143.59 165.41C126.13 154.65 104.46 159.1 97.88 158.78L100.55 168.3Z" fill="#EBB787"/>
<path d="M148.35 221.84C140.35 221.84 138.35 214.18 135.91 204.49C134.431 198.111 132.424 191.866 129.91 185.82C124.08 172.37 112.32 170.36 105.84 170.36C104.232 170.347 102.625 170.478 101.04 170.75L98.76 171.22L94.51 156.12L97.98 156.28C99.19 156.34 101.07 156.21 103.33 156.06C106.19 155.87 109.75 155.63 113.71 155.63C126.33 155.63 136.53 158.14 144.88 163.29C159.31 172.18 165.31 191.55 163.63 205.29C162.63 213.5 158.84 219.23 153.25 221.01C151.669 221.537 150.016 221.817 148.35 221.84ZM105.86 165.36C113.57 165.36 127.55 167.76 134.52 183.83C137.121 190.124 139.208 196.619 140.76 203.25C143.9 215.59 145.22 218.3 151.76 216.25C155.4 215.1 157.92 210.88 158.68 204.69C160.2 192.35 154.48 175.1 142.28 167.58C134.74 162.93 125.4 160.67 113.73 160.67C109.94 160.67 106.47 160.9 103.73 161.09L101.2 161.25L102.41 165.57C103.31 165.44 104.49 165.36 105.86 165.36Z" fill="#231F20"/>
<path d="M161.41 200.19C161.27 187.81 155.3 172.63 143.59 165.41C137.775 161.945 131.306 159.719 124.59 158.87C122.28 152.7 120.59 149.18 120.59 149.18H61.36C61.36 149.18 59.71 152.7 57.36 158.87C50.6435 159.717 44.1748 161.944 38.36 165.41C26.65 172.63 20.68 187.81 20.53 200.19C28.5356 200.552 36.2012 203.531 42.35 208.67C43.95 202.96 45.47 195.41 48.77 187.12C43.36 210.03 39.77 240.47 47.42 270.27H77.7V238.11H104.19V270.27H134.46C142.07 240.47 138.52 210.03 133.11 187.12C136.42 195.41 137.93 202.96 139.54 208.67C145.702 203.519 153.387 200.539 161.41 200.19Z" fill="#154579"/>
<path d="M136.47 272.77H101.75V240.61H80.26V272.77H45.54L45.06 270.89C39.81 250.32 39.88 229.48 41.97 211.58L40.79 210.58C35.0827 205.85 28.0024 203.087 20.6 202.7H18.07V200.17C18.22 187.56 24.16 171.26 37.07 163.3C42.7307 159.897 49.0012 157.631 55.53 156.63C57.58 151.29 58.99 148.26 59.06 148.12L59.73 146.69H122.2L122.87 148.12C122.93 148.26 124.35 151.29 126.39 156.63C132.922 157.631 139.196 159.897 144.86 163.3C157.79 171.3 163.72 187.56 163.86 200.17V202.71H161.4C154.001 203.099 146.925 205.862 141.22 210.59L140.04 211.59C142.13 229.49 142.2 250.33 136.95 270.9L136.47 272.77ZM106.75 267.77H132.57C139.65 238.11 135.52 207.95 130.74 187.7L135.5 186.2C137.628 191.768 139.386 197.47 140.76 203.27C140.86 203.66 140.96 204.04 141.05 204.41C146.362 200.841 152.452 198.598 158.81 197.87C158.02 187.29 152.73 173.99 142.28 167.54C136.77 164.258 130.642 162.147 124.28 161.34L122.81 161.13L122.29 159.74C120.89 156 119.72 153.23 119.05 151.68H63C62.32 153.23 61.16 156 59.76 159.74L59.24 161.13L57.77 161.34C51.4076 162.147 45.28 164.258 39.77 167.54C29.27 174 24 187.29 23.2 197.87C29.5709 198.596 35.6749 200.838 41 204.41C41.09 204.04 41.19 203.66 41.29 203.27C42.6598 197.469 44.417 191.766 46.55 186.2L51.31 187.7C46.52 207.95 42.39 238.11 49.48 267.77H75.3V235.61H106.79L106.75 267.77Z" fill="#231F20"/>
<path d="M42.81 237.29C42.6928 242.805 43.0273 248.32 43.81 253.78H39.75C38.6671 253.78 37.5948 253.993 36.5944 254.408C35.594 254.823 34.6852 255.431 33.9199 256.197C33.1546 256.963 32.5479 257.873 32.1344 258.874C31.7209 259.875 31.5087 260.947 31.51 262.03C31.51 264.215 32.3782 266.311 33.9235 267.857C35.4688 269.402 37.5646 270.27 39.75 270.27H78.62V247.6L42.81 237.29Z" fill="#BE1E2D"/>
<path d="M81.14 272.77H39.77C36.977 272.685 34.3269 271.515 32.3814 269.51C30.4359 267.504 29.3478 264.819 29.3478 262.025C29.3478 259.231 30.4359 256.546 32.3814 254.54C34.3269 252.535 36.977 251.365 39.77 251.28H41C40.444 246.615 40.2168 241.917 40.32 237.22L40.41 234L81.15 245.71L81.14 272.77ZM39.77 256.28C38.2878 256.342 36.8869 256.974 35.86 258.045C34.8331 259.115 34.2597 260.542 34.2597 262.025C34.2597 263.508 34.8331 264.935 35.86 266.005C36.8869 267.076 38.2878 267.708 39.77 267.77H76.14V249.48L45.28 240.6C45.3547 244.896 45.6886 249.184 46.28 253.44L46.68 256.28H39.77Z" fill="#231F20"/>
<path d="M139.58 237.29C139.697 242.805 139.363 248.32 138.58 253.78H142.64C143.723 253.78 144.795 253.993 145.796 254.408C146.796 254.823 147.705 255.431 148.47 256.197C149.235 256.963 149.842 257.873 150.256 258.874C150.669 259.875 150.881 260.947 150.88 262.03C150.88 264.215 150.012 266.311 148.467 267.857C146.921 269.402 144.825 270.27 142.64 270.27H103.76V247.6L139.58 237.29Z" fill="#BE1E2D"/>
<path d="M142.62 272.77H101.26V245.71L142 234L142.09 237.22C142.198 241.917 141.971 246.615 141.41 251.28H142.63C145.423 251.365 148.073 252.535 150.019 254.54C151.964 256.546 153.052 259.231 153.052 262.025C153.052 264.819 151.964 267.504 150.019 269.51C148.073 271.515 145.423 272.685 142.63 272.77H142.62ZM106.26 267.77H142.62C144.102 267.708 145.503 267.076 146.53 266.005C147.557 264.935 148.13 263.508 148.13 262.025C148.13 260.542 147.557 259.115 146.53 258.045C145.503 256.974 144.102 256.342 142.62 256.28H135.69L136.09 253.44C136.681 249.184 137.015 244.896 137.09 240.6L106.24 249.48L106.26 267.77Z" fill="#231F20"/>
<path d="M144.09 24.58H37.92C20.2469 24.58 5.91998 38.9069 5.91998 56.58V131.33C5.91998 149.003 20.2469 163.33 37.92 163.33H144.09C161.763 163.33 176.09 149.003 176.09 131.33V56.58C176.09 38.9069 161.763 24.58 144.09 24.58Z" fill="#EBB787"/>
<path d="M144.09 165.83H37.92C28.7733 165.819 20.0042 162.181 13.5365 155.714C7.06879 149.246 3.43057 140.477 3.41998 131.33V56.58C3.43057 47.4333 7.06879 38.6642 13.5365 32.1965C20.0042 25.7288 28.7733 22.0906 37.92 22.08H144.09C153.237 22.0906 162.006 25.7288 168.473 32.1965C174.941 38.6642 178.579 47.4333 178.59 56.58V131.33C178.579 140.477 174.941 149.246 168.473 155.714C162.006 162.181 153.237 165.819 144.09 165.83ZM37.92 27.08C30.0993 27.0906 22.6021 30.202 17.072 35.7321C11.542 41.2621 8.43057 48.7594 8.41998 56.58V131.33C8.42792 139.151 11.5385 146.65 17.0691 152.181C22.5997 157.712 30.0985 160.822 37.92 160.83H144.09C151.911 160.822 159.41 157.712 164.941 152.181C170.471 146.65 173.582 139.151 173.59 131.33V56.58C173.579 48.7594 170.468 41.2621 164.938 35.7321C159.408 30.202 151.911 27.0906 144.09 27.08H37.92Z" fill="#231F20"/>
<path d="M53.5 110.75C60.4036 110.75 66 105.154 66 98.25C66 91.3464 60.4036 85.75 53.5 85.75C46.5964 85.75 41 91.3464 41 98.25C41 105.154 46.5964 110.75 53.5 110.75Z" fill="#231F20"/>
<path d="M128.5 110.75C135.404 110.75 141 105.154 141 98.25C141 91.3464 135.404 85.75 128.5 85.75C121.596 85.75 116 91.3464 116 98.25C116 105.154 121.596 110.75 128.5 110.75Z" fill="#231F20"/>
<path d="M53.5 94.46C53.502 95.1294 53.3052 95.7842 52.9345 96.3416C52.5639 96.899 52.0361 97.3337 51.4181 97.5908C50.8001 97.8479 50.1197 97.9156 49.4631 97.7855C48.8065 97.6554 48.2033 97.3333 47.73 96.86C47.2567 96.3867 46.9346 95.7836 46.8045 95.127C46.6744 94.4704 46.7422 93.7899 46.9992 93.1719C47.2563 92.5539 47.6911 92.0261 48.2484 91.6555C48.8058 91.2848 49.4607 91.088 50.13 91.09C51.0238 91.09 51.881 91.4451 52.513 92.0771C53.145 92.7091 53.5 93.5662 53.5 94.46Z" fill="white"/>
<path d="M129.05 94.46C129.052 95.1289 128.855 95.7834 128.485 96.3405C128.115 96.8977 127.588 97.3325 126.97 97.5898C126.353 97.8472 125.673 97.9155 125.017 97.7863C124.36 97.657 123.757 97.3359 123.284 96.8636C122.81 96.3913 122.487 95.789 122.356 95.1331C122.224 94.4772 122.291 93.7971 122.546 93.1789C122.802 92.5607 123.235 92.0322 123.791 91.6603C124.347 91.2885 125.001 91.09 125.67 91.09C126.565 91.09 127.423 91.4447 128.056 92.0764C128.69 92.7082 129.047 93.5653 129.05 94.46Z" fill="white"/>
<path d="M109.76 132C108.353 133.868 106.772 135.599 105.04 137.17C103.296 138.808 101.431 140.313 99.46 141.67C98.92 142.05 98.35 142.42 97.75 142.78C97.1476 143.145 96.5268 143.479 95.89 143.78C95.58 143.95 95.24 144.11 94.89 144.27C94.54 144.43 94.21 144.58 93.81 144.71L92.58 145.09C92.35 145.14 92.07 145.17 91.81 145.21L91.41 145.26H91.21H91C90.87 145.26 91.26 145.26 90.7 145.26C90.35 145.26 90.05 145.18 89.7 145.11C89.35 145.04 88.7 144.86 88.25 144.7C87.8 144.54 87.51 144.41 87.13 144.25C86.7873 144.106 86.4534 143.943 86.13 143.76C85.4924 143.461 84.8715 143.127 84.27 142.76C83.67 142.41 83.1 142.04 82.56 141.66C80.5912 140.3 78.7261 138.796 76.98 137.16C75.2533 135.583 73.6765 133.849 72.27 131.98C72.27 131.98 72.94 132.22 74.06 132.7C75.18 133.18 76.78 133.88 78.62 134.77L84.81 137.83C85.92 138.38 87.07 138.93 88.19 139.41C88.4635 139.539 88.744 139.652 89.03 139.75C89.28 139.83 89.61 139.98 89.81 140.04C89.981 140.083 90.1482 140.14 90.31 140.21C90.59 140.26 90.97 140.29 91.31 140.33H91.25C91.33 140.33 91.39 140.33 91.49 140.33L92.22 140.12C92.75 139.91 93.3 139.76 93.87 139.49C94.99 139.01 96.14 138.49 97.25 137.91L103.44 134.85C105.28 133.95 106.87 133.25 108 132.77C109.13 132.29 109.76 132 109.76 132Z" fill="#231F20"/>
<path d="M144.09 27.08H37.92C30.0993 27.0906 22.6021 30.202 17.072 35.7321C11.542 41.2621 8.43057 48.7594 8.41998 56.58V112.58L13.97 106.47L14.07 105.71C14.15 105.17 22.29 51.1 65.46 51.1C73.9096 51.2756 82.2642 52.9201 90.15 55.96C86.6917 60.2957 84.8813 65.7163 85.04 71.26C85.04 84.59 106.38 83.92 106.04 71.26C106.04 71.26 93.04 82.92 93.71 70.59C94.14 62.68 104.12 58.44 110.92 54.59C113.68 53.54 118.3 51.38 125.48 51.92C139.23 54.5 150.27 63.25 158.37 78.04C162.994 86.6914 166.208 96.0255 167.89 105.69L168 106.45L173.55 112.56V56.56C173.534 48.7498 170.426 41.2636 164.905 35.7391C159.384 30.2145 151.9 27.1012 144.09 27.08Z" fill="#D69576"/>
<path d="M118.62 2C110.04 1.36 102.91 0.999999 96.18 0.779999C92.85 0.679999 89.59 0.630005 86.5 0.630005C64.68 0.630005 47.26 3.06001 33.24 8.07001C14.24 14.85 3.41998 28.34 3.41998 45.07V110.54L14 98.94L14.1 98.18C14.18 97.64 22.32 43.57 65.49 43.57C73.9396 43.7456 82.2942 45.3901 90.18 48.43C86.7217 52.7657 84.9113 58.1863 85.07 63.73C85.07 77.06 106.41 76.39 106.07 63.73C106.07 63.73 93.07 75.39 93.74 63.06C94.17 55.15 104.15 50.91 110.95 47.06C113.71 46.01 118.33 43.85 125.51 44.39C139.26 46.97 150.3 55.72 158.4 70.51C163.024 79.1614 166.238 88.4955 167.92 98.16L168.03 98.92L178.58 110.53V45.08C178.59 19.83 157.85 4.94 118.62 2Z" fill="#231F20"/>
</svg>
